<svg enable-background="new 0.133 157.451 639.839 165.111" height="77.34375" viewBox=".133 157.451 639.839 165.111" width="300" xmlns="http://www.w3.org/2000/svg"><g fill="#002d72"><path d="m59.054 278.413c3.65-2.032 7.155-4.315 10.489-6.833v-35.264l-10.489-6.946z"/><path d="m59.054 204.961 10.489 6.974v-17.8c-3.487-.169-7.002-.281-10.489-.31z"/><path d="m90.493 195.963c-3.487-.422-6.974-.787-10.489-1.097v23.987l10.489 7.03z"/><path d="m80.003 243.29v19.179c3.803-3.784 7.31-7.855 10.489-12.177z"/><path d="m100.954 197.566v35.348c5.059-10.552 8.545-21.789 10.348-33.351h-.365c-3.318-.703-6.665-1.322-10.011-1.884"/><path d="m69.542 211.936v24.38l10.461 6.974v-24.409z"/><path d="m90.493 225.883v24.38c4.03-5.438 7.533-11.248 10.461-17.35z"/><path d="m36.079 237.919c3.056-.866 5.792-2.606 7.874-5.005-1.307-.463-2.641-.848-3.993-1.153-1.006 2.194-2.312 4.239-3.88 6.074"/><path d="m19.459 232.914c2.112 2.353 4.854 4.051 7.902 4.893-1.548-1.792-2.827-3.8-3.796-5.961-1.393.255-2.765.612-4.106 1.068"/><path d="m30.202 207.605c-1.436 1.569-2.647 3.329-3.6 5.23 1.194.165 2.396.268 3.6.309z"/><path d="m41 228.977c1.64.381 3.248.889 4.809 1.519 1.273-2.104 2.052-4.469 2.278-6.917h-6.102c-.121 1.83-.451 3.642-.985 5.398"/><path d="m27.361 206.227c-3.054.842-5.799 2.552-7.902 4.921 1.343.47 2.714.855 4.106 1.153.985-2.206 2.293-4.253 3.88-6.074"/><path d="m43.953 211.148c-2.087-2.375-4.824-4.085-7.874-4.921 1.568 1.835 2.875 3.879 3.88 6.074 1.354-.301 2.688-.686 3.994-1.153"/><path d="m41.984 220.568h6.102c-.226-2.439-1.004-4.796-2.278-6.889-1.565.61-3.172 1.108-4.809 1.49.535 1.756.865 3.568.985 5.399"/><path d="m33.21 236.569c1.438-1.578 2.649-3.347 3.6-5.259-1.194-.165-2.395-.268-3.6-.309z"/><path d="m30.202 223.578h-5.624c.125 1.645.446 3.268.956 4.836 1.585-.231 3.18-.381 4.78-.45z"/><path d="m33.21 227.993c1.601.045 3.197.186 4.781.421.523-1.565.844-3.19.956-4.836h-5.624z"/><path d="m36.838 212.835c-.958-1.906-2.179-3.667-3.628-5.23v5.624c1.214-.04 2.425-.143 3.628-.309"/><path d="m38.947 220.568c-.112-1.646-.433-3.271-.956-4.836-1.585.231-3.181.381-4.781.45v4.387h5.737z"/><path d="m26.602 231.311c.96 1.897 2.17 3.657 3.6 5.23v-5.624c-1.205.04-2.406.143-3.6.31"/><path d="m22.412 215.169c-1.643-.391-3.259-.889-4.836-1.49-1.252 2.101-2.021 4.455-2.25 6.889h6.13c.098-1.831.419-3.645.956-5.399"/><path d="m30.202 216.182c-1.6-.068-3.196-.218-4.78-.45-.51 1.568-.831 3.192-.957 4.836h5.625z"/><path d="m21.456 223.578h-6.13c.229 2.444.998 4.807 2.25 6.917 1.572-.625 3.189-1.132 4.836-1.519-.537-1.753-.858-3.566-.956-5.398"/><path d="m1.856 199.534c7.649 47.44 37.457 70.724 52.276 78.879v-84.587c-17.447.157-34.835 2.041-51.911 5.624zm29.836 3.066c10.763-.062 19.538 8.612 19.6 19.375s-8.612 19.538-19.375 19.6-19.538-8.612-19.6-19.375c0-.037 0-.075 0-.112.016-10.745 8.714-19.457 19.459-19.487"/><path d="m110.937 163.202c-35.814-7.668-72.845-7.668-108.659 0-1.286.317-2.176 1.489-2.137 2.812v9.786c-.062 6.115.249 12.229.928 18.307 36.599-7.688 74.395-7.688 110.993 0 .736-6.074 1.102-12.188 1.097-18.307v-9.814c.027-1.357-.919-2.541-2.25-2.812m-12.262 24.297c-13.933-2.369-28.048-3.498-42.181-3.375-14.132-.122-28.248 1.007-42.181 3.375-.308.106-.645-.057-.751-.365-.062-.18-.034-.38.076-.535l8.971-19.685c0-.197 5.877-3.065 5.877-3.065 9.353-1.539 18.939-.767 27.924 2.25 8.985-3.018 18.572-3.79 27.924-2.25 0 0 5.792 2.812 5.877 3.065l8.971 19.685c.167.297.062.675-.236.842-.142.08-.31.101-.467.058"/><path d="m82.197 167.167 3.769 10.095c-9.028-1.321-18.243-.354-26.799 2.812v.956c10.152-.394 23.003-.956 33.379 1.266l-5.624-12.992z"/><path d="m27.08 177.263 3.769-10.095-4.668 2.165-5.652 12.964c10.376-2.25 23.199-1.688 33.351-1.293v-.9c-8.557-3.167-17.771-4.134-26.799-2.812"/><path d="m148.309 181.424c0-8.886-.815-9.842-5.624-10.264h-1.997c-.429-.62-.358-1.458.169-1.997 4.64 0 7.368.225 10.714.225s5.934 0 9.111-.225c.538.534.609 1.379.168 1.997h-1.181c-4.724.646-4.893 1.771-4.893 10.264v29.667c.301 5.243-.327 10.499-1.856 15.523-2.396 6.715-8.65 11.286-15.775 11.529-.956 0-3.431 0-3.431-1.687 0-1.688 1.181-3.684 2.812-3.684 1.013 0 2.019.162 2.98.478 1.085.339 2.21.528 3.347.562 1.394.029 2.665-.796 3.206-2.081 1.828-3.768 2.081-15.748 2.081-20.078z"/><path d="m160.766 200.266c-.285-12.888 9.931-23.566 22.818-23.852.408-.009.817-.007 1.226.005 12.251-.665 22.721 8.729 23.386 20.98.04.73.043 1.461.011 2.191.281 12.717-9.8 23.253-22.516 23.535-.293.006-.587.007-.88.002-14.99 0-24.045-10.713-24.045-22.861m40.691 1.405c0-11.248-4.921-23.143-17.8-23.143-7.03 0-16.142 4.78-16.142 19.684 0 9.983 4.865 22.947 18.166 22.947 8.099 0 15.776-6.074 15.776-19.375"/><path d="m223.56 200.266c-3.234 0-3.375 0-3.375 2.165v9.505c0 7.086.337 8.014 4.105 8.436l1.969.197c.394.281.253 1.491 0 1.688-3.656-.141-5.934-.197-8.437-.197s-5.202.141-7.817.197c-.43-.48-.43-1.207 0-1.688l1.153-.197c3.768-.675 3.909-1.35 3.909-8.436v-24.296c0-7.086-.478-8.239-3.993-8.436h-1.743c-.422-.281-.281-1.491 0-1.688 3.29 0 5.624.197 8.436.197s4.921 0 7.817-.197c.422.197.562 1.406 0 1.688h-1.265c-3.909.422-4.049 1.434-4.049 8.436v7.761c0 2.081 0 2.166 3.375 2.166h19.263c3.234 0 3.374 0 3.374-2.166v-7.761c0-7.086-.141-8.099-4.105-8.436h-1.293c-.406-.489-.406-1.198 0-1.688 3.093 0 5.399.197 8.155.197s5.118-.281 7.93-.394c.422.197.562 1.406 0 1.688h-1.406c-3.909.421-4.05 1.434-4.05 8.436v24.296c0 7.086 0 7.958 4.05 8.436l1.603.197c.422.281.281 1.491 0 1.688-3.262-.141-5.624-.197-8.183-.197s-5.202 0-8.155.197c-.422-.197-.535-1.293 0-1.688l1.293-.197c4.105-.675 4.105-1.35 4.105-8.436v-9.308c0-2.053-.141-2.165-3.375-2.165z"/><path d="m303.535 210.586c0 2.024 0 10.039.197 11.811-.22.504-.748.802-1.293.731-.787-1.153-2.812-3.515-8.633-10.18l-15.664-17.829c-1.799-2.081-6.411-7.621-7.817-9.111-.292 1.443-.405 2.916-.337 4.387v14.707c0 3.178 0 11.952 1.209 14.061.422.759 1.772 1.153 3.459 1.293l2.081.197c.457.47.457 1.218 0 1.688-3.037-.141-5.399-.197-7.874-.197s-4.668 0-7.03.197c-.429-.48-.429-1.207 0-1.688l1.828-.197c1.546-.197 2.643-.619 2.981-1.35.778-4.597 1.07-9.262.872-13.92v-19.572c.228-1.76-.316-3.534-1.49-4.865-1.195-.963-2.659-1.533-4.19-1.631h-1.153c-.394-.422-.394-1.434 0-1.688 2.812.197 6.412.197 7.621.197.914-.055 1.825-.158 2.728-.31 1.35 3.431 9.308 12.345 11.529 14.848l6.552 7.34c4.64 5.202 7.958 8.97 11.249 12.232.266-.912.352-1.867.253-2.812v-14.482c0-3.178 0-11.951-1.35-14.061-.394-.59-1.49-1.012-4.162-1.35h-1.153c-.478-.422-.422-1.49 0-1.687 3.121 0 5.427.197 7.986.197s4.64 0 6.946-.197c.457.469.457 1.218 0 1.687h-.957c-2.165.337-3.515.9-3.768 1.434-1.153 2.418-1.012 10.798-1.012 13.892z"/><path d="m321.363 223.127c-3.665.112-7.294-.751-10.517-2.502-1.095-3.036-1.711-6.224-1.828-9.449.337-.478 1.35-.59 1.603-.197 1.013 3.431 3.796 10.067 11.615 10.067 4.201.436 7.961-2.618 8.396-6.819.032-.313.045-.627.039-.942.155-3.983-2.049-7.686-5.624-9.448l-6.215-4.19c-4.301-2.395-7.088-6.813-7.396-11.727 0-6.412 5.006-11.614 13.78-11.614 2.119.041 4.225.343 6.271.9.769.228 1.562.36 2.362.394.795 2.675 1.201 5.449 1.209 8.239-.445.456-1.148.538-1.688.197-.621-4.531-4.599-7.838-9.167-7.621-6.608 0-8.042 4.387-8.042 7.48.376 3.529 2.485 6.64 5.624 8.296l5.4 3.375c4.273 2.643 8.436 6.552 8.436 12.963 0 7.424-5.624 12.486-14.369 12.486"/><path d="m375.806 196.356c-3.853 0-3.993.169-3.993 2.559v11.249c0 8.436.394 9.533 4.865 10.011l2.334.225c.429.62.357 1.457-.169 1.997-4.331-.169-7.03-.225-10.151-.225s-6.188.141-9.28.225c-.506-.225-.646-1.519-.169-1.997l1.35-.225c4.472-.815 4.641-1.603 4.641-10.011v-28.908c0-8.437-.562-9.758-4.725-10.095h-2.081c-.429-.62-.358-1.458.169-1.997 3.908 0 6.637.225 10.096.225s5.82 0 9.279-.225c.519.546.577 1.383.141 1.997h-1.519c-4.64.506-4.78 1.687-4.78 10.095v9.195c0 2.475 0 2.559 3.993 2.559h22.862c3.853 0 4.021 0 4.021-2.559v-9.195c0-8.437-.169-9.589-4.894-10.095h-1.519c-.429-.62-.357-1.458.169-1.997 3.655 0 6.384.225 9.674.225s5.849 0 9.448-.225c.476.58.476 1.416 0 1.997h-1.659c-4.64.506-4.809 1.687-4.809 10.095v28.795c0 8.437.169 9.449 4.809 10.011l1.912.225c.429.62.358 1.457-.169 1.997-3.824-.169-6.552-.225-9.673-.225-3.122 0-6.159 0-9.674.225-.538-.534-.609-1.38-.169-1.997l1.519-.225c4.894-.815 4.894-1.603 4.894-10.011v-11.248c0-2.39-.169-2.559-4.021-2.559z"/><path d="m415.456 200.266c-.285-12.888 9.931-23.566 22.818-23.851.398-.009.798-.008 1.196.004 12.251-.68 22.732 8.7 23.413 20.95.041.74.045 1.481.012 2.221.281 12.717-9.799 23.253-22.516 23.535-.303.007-.606.007-.909.002-14.959 0-24.014-10.713-24.014-22.861m40.69 1.405c0-11.248-4.921-23.143-17.828-23.143-7.002 0-16.113 4.78-16.113 19.684 0 9.983 4.864 22.947 18.166 22.947 8.099 0 15.775-6.074 15.775-19.375"/><path d="m475.1 211.936c0 7.086.141 7.958 4.472 8.436l1.828.197c.355.526.297 1.228-.141 1.688-3.853-.141-6.074-.197-8.774-.197-2.699 0-5.258 0-8.239.197-.438-.459-.496-1.162-.141-1.688l1.435-.197c3.908-.534 4.049-1.35 4.049-8.436v-24.915c0-5.624-.141-6.89-3.178-7.227l-2.446-.309c-.466-.434-.491-1.164-.058-1.63.019-.02.038-.039.058-.058 4.437-.46 8.898-.639 13.357-.534 4.499-.286 8.988.688 12.964 2.812 3.462 2.184 5.514 6.032 5.399 10.124.126 4.608-2.538 8.837-6.749 10.714-2.923 1.332-6.097 2.022-9.309 2.025-.478-.197-.478-1.209 0-1.35 7.284-1.35 9.899-5.455 9.899-11.248.534-5.456-3.455-10.313-8.912-10.848-.617-.061-1.24-.063-1.858-.007-3.571 0-3.656.253-3.656 2.418z"/><path d="m503.192 187.639c0-7.086-.141-8.183-4.049-8.436h-1.688c-.394-.281-.253-1.491 0-1.688 3.29 0 5.455.197 8.437.197 2.98 0 4.921 0 7.846-.197.394.197.534 1.406 0 1.688h-1.266c-3.909.422-4.05 1.434-4.05 8.436v7.761c0 1.266.141 2.559.872 2.559.683-.069 1.334-.322 1.884-.731.956-.815 2.812-2.587 3.459-3.262l7.283-7.199c1.266-1.237 4.584-4.668 5.259-5.624.269-.297.436-.671.478-1.069 0-.281-.281-.478-1.152-.675l-1.828-.394c-.432-.447-.42-1.159.026-1.591.036-.035.074-.067.114-.097 2.362 0 5.062.197 7.424.197s4.668 0 6.665-.197c.442.475.442 1.212 0 1.688-2.198.188-4.334.83-6.271 1.884-3.377 2.317-6.539 4.934-9.448 7.818l-6.074 5.624c-.928.956-1.547 1.546-1.547 2.109s.394 1.012 1.294 2.081c6.411 7.339 11.586 13.442 16.872 18.953 1.277 1.566 3.112 2.574 5.118 2.812l1.321.197c.429.492.377 1.238-.115 1.666-.009.007-.017.014-.025.021-1.771-.141-3.599-.197-6.776-.197-2.812 0-5.146 0-8.239.197-.479-.141-.675-1.293-.281-1.687l1.574-.281c.928 0 1.604-.337 1.604-.675s-.479-.928-.929-1.547c-1.293-1.603-3.037-3.431-5.624-6.327l-5.399-6.074c-3.824-4.331-4.921-5.624-6.523-5.624-1.013 0-1.153.872-1.153 3.234v8.717c0 7.086.141 8.015 3.909 8.437l1.827.197c.395.281.254 1.49 0 1.687-3.317-.141-5.624-.197-8.239-.197s-5.062 0-7.817.197c-.422-.197-.534-1.209-.141-1.687l1.35-.197c3.571-.534 3.712-1.35 3.712-8.437z"/><path d="m549.423 187.92c0-7.171 0-8.436-4.105-8.661h-1.688c-.366-.522-.308-1.233.141-1.688 3.375 0 5.624.197 8.437.197s5.006 0 8.437-.197c.394.197.534 1.406 0 1.688h-1.688c-3.769.225-3.909 1.35-3.909 8.661v24.015c0 7.143.141 8.099 4.134 8.577l1.688.197c.394.281.253 1.491 0 1.688-3.374-.141-5.624-.197-8.437-.197-2.812 0-4.864 0-8.239.197-.438-.459-.496-1.162-.141-1.688l1.435-.197c3.937-.619 3.937-1.659 3.937-8.717v-23.875z"/><path d="m607.886 210.586c0 2.024 0 10.039.226 11.811-.228.498-.75.793-1.294.731-.815-1.153-2.812-3.515-8.633-10.18l-15.663-17.829c-1.828-2.081-6.412-7.621-7.818-9.111h-.141c-.306 1.441-.419 2.916-.337 4.387v14.707c0 3.178 0 11.952 1.209 14.061.394.759 1.743 1.153 3.431 1.293l2.109.197c.405.512.344 1.25-.141 1.688-3.037-.141-5.399-.197-7.902-.197-2.502 0-4.64 0-7.002.197-.484-.438-.546-1.176-.141-1.688l1.828-.197c1.547-.197 2.615-.619 2.953-1.35.791-4.595 1.083-9.262.871-13.92v-19.572c.228-1.756-.304-3.525-1.462-4.865-1.197-.959-2.66-1.528-4.19-1.631h-1.152c-.395-.422-.395-1.434.141-1.688 2.812.197 6.411.197 7.62.197 1.034-.003 2.067-.069 3.094-.197 1.378 3.431 9.336 12.345 11.558 14.848l6.552 7.339c4.64 5.202 7.958 8.971 11.248 12.232.296-.906.392-1.865.281-2.812v-14.595c0-3.178 0-11.951-1.35-14.061-.394-.59-1.49-1.012-4.189-1.35h-1.153c-.45-.422-.394-1.49 0-1.687 3.121 0 5.399.197 7.958.197 2.56 0 4.668 0 6.974-.197.467.457.474 1.204.018 1.67-.006.006-.012.012-.018.017h-.928c-2.165.337-3.515.9-3.796 1.434-1.125 2.418-1.013 10.798-1.013 13.892z"/><path d="m625.631 223.127c-3.674.105-7.311-.758-10.546-2.502-1.095-3.036-1.712-6.224-1.828-9.449.366-.478 1.351-.59 1.632-.197 1.012 3.431 3.768 10.067 11.613 10.067 4.219.419 7.979-2.66 8.399-6.879.029-.293.042-.587.037-.882.141-3.98-2.059-7.675-5.624-9.448l-6.412-4.19c-4.236-2.431-6.948-6.848-7.198-11.727 0-6.412 4.977-11.614 13.778-11.614 2.12.042 4.226.345 6.271.9.768.23 1.562.362 2.362.394.819 2.709 1.255 5.521 1.293 8.352-.281.394-1.35.59-1.687.197-.622-4.542-4.617-7.853-9.196-7.621-6.608 0-8.014 4.387-8.014 7.48.366 3.533 2.478 6.647 5.624 8.295l5.398 3.375c4.247 2.644 8.437 6.552 8.437 12.964 0 7.424-5.624 12.485-14.369 12.485"/><path d="m230.646 257.463c0-3.656 0-4.218-2.109-4.415h-.872c-.197 0 0-.759 0-.872h4.387s2.559 0 4.049 0c.213.252.213.621 0 .872h-.675c-2.024.226-2.081.759-2.081 4.415v3.993c0 .675 0 1.351.45 1.351.349-.043.679-.18.956-.395.506-.422 1.406-1.321 1.8-1.688l3.768-3.711c.647-.647 2.362-2.419 2.812-2.812.146-.153.235-.352.253-.562 0-.141 0-.253-.591-.365l-.928-.197c-.241-.196-.277-.551-.081-.791.024-.029.051-.057.081-.08h3.853s2.39 0 3.431 0c.225.246.225.624 0 .871-1.143.103-2.253.438-3.262.984-1.739 1.201-3.367 2.557-4.865 4.049l-3.149 2.812c-.478.479-.816.815-.816 1.097s.225.507.675 1.068c3.318 3.796 6.018 6.946 8.717 9.814.727.807 1.731 1.309 2.812 1.405h.928c.239.242.239.631 0 .873-.928 0-2.278 0-3.909 0s-2.812 0-4.274 0c-.225 0-.338-.647 0-.873l.815-.141c.478 0 .843-.168.843-.337s-.253-.506-.506-.815c-.647-.815-1.547-1.771-2.812-3.262l-2.812-3.15c-1.997-2.221-2.559-2.812-3.375-2.812s-.591.45-.591 1.659v4.5c0 3.684 0 4.161 2.025 4.357h.928c.225 0 .141.76 0 .873-1.715 0-2.812 0-4.274 0s-2.615 0-4.049 0c-.213-.252-.213-.621 0-.873h.703c1.856-.252 1.912-.674 1.912-4.357z"/><path d="m255.927 257.491c0-3.318 0-3.909-1.546-4.077h-1.097c-.241-.197-.277-.551-.081-.792.024-.029.051-.056.081-.08 1.94-.169 4.358-.281 7.761-.281 2.005-.13 4.012.228 5.849 1.04 1.812.942 2.911 2.854 2.812 4.894-.171 2.576-1.865 4.801-4.302 5.651-.169.197 0 .562.197.844 1.843 3.436 4.205 6.565 7.002 9.28.688.565 1.531.909 2.418.984.168 0 .197.337 0 .478-.504.134-1.026.191-1.547.17-2.812 0-4.724-.873-7.199-4.388-.928-1.294-2.362-3.712-3.431-5.286-.539-.818-1.506-1.248-2.475-1.098-1.575 0-1.631 0-1.631.76v4.387c0 3.684 0 4.105 2.081 4.359h.731c.212.251.212.619 0 .871-1.575 0-2.812 0-4.162 0s-2.812 0-4.359 0c-.225 0-.281-.619 0-.871h.872c2.024-.226 2.109-.676 2.109-4.359zm2.812 4.978c-.067.381-.067.771 0 1.152 0 0 .647.197 2.418.197 1.271.107 2.54-.22 3.6-.928 1.256-1.07 1.907-2.689 1.744-4.331.137-2.839-2.054-5.251-4.893-5.388-.244-.012-.489-.006-.732.017-2.165 0-2.25 0-2.25 1.125z"/><path d="m280.167 257.52c0-3.684 0-4.274-2.137-4.472h-.872c-.192-.259-.192-.612 0-.872h4.415 4.331c.197 0 .281.731 0 .872h-.872c-2.053.197-2.137.788-2.137 4.472v12.43c0 3.684 0 4.189 2.137 4.414h.872c.225 0 0 .76 0 .872-1.744 0-2.812 0-4.331 0s-2.644 0-4.415 0c-.202-.255-.202-.616 0-.872h.872c2.053-.225 2.137-.73 2.137-4.414z"/><path d="m293.693 257.463c0-3.627 0-4.162-2.137-4.415h-.562c-.213-.251-.213-.62 0-.872h4.105 6.552c1.573.086 3.15.086 4.724 0 .274 1.535.462 3.084.562 4.641 0 .197-.703.281-.872 0-.535-1.631-.844-2.812-2.672-3.291-1.112-.203-2.245-.278-3.375-.225h-2.502c-1.041 0-1.041 0-1.041 1.406v6.975c0 .984 0 .984 1.125.984h2.024c.999.041 2-.034 2.981-.226.422 0 .646-.337.844-1.21l.281-1.434c.251-.242.649-.242.9 0v3.516 3.374c-.264.206-.635.206-.9 0l-.337-1.378c-.141-.619-.365-1.152-1.068-1.322-.927-.168-1.872-.225-2.812-.168h-2.025c-1.041 0-1.125 0-1.125.956v4.894c0 1.855 0 3.037.646 3.627.647.591 1.153.815 4.218.815 1.512.166 3.041-.017 4.471-.534 1.095-.898 1.946-2.06 2.475-3.375.311-.168.699-.055.872.254-.394 1.652-.92 3.27-1.575 4.836-3.149 0-6.243 0-9.336 0h-3.149c-1.491 0-2.812 0-4.752 0-.213-.251-.213-.619 0-.871h1.153c1.997-.169 2.165-.675 2.165-4.359z"/><path d="m333.034 271.691c0 1.406.196 2.223.843 2.475.111.119.111.304 0 .422-.571.041-1.137.145-1.687.311-2.04.535-4.135.836-6.243.899-3.926.197-7.766-1.19-10.657-3.853-2.087-2.107-3.242-4.965-3.206-7.93-.041-3.057 1.086-6.014 3.149-8.268 2.936-2.87 6.956-4.354 11.052-4.078 1.485.012 2.965.181 4.415.506.714.221 1.448.362 2.193.422.072 1.697.251 3.388.534 5.062 0 .253-.731.309-.956 0-.655-3.357-3.849-5.594-7.228-5.062-5.102-.283-9.467 3.623-9.75 8.725-.024.438-.018.878.021 1.314 0 6.721 3.459 11.98 10.461 11.98 2.165 0 3.459-.451 3.853-1.041.279-.626.396-1.312.338-1.996v-1.406c0-2.812 0-3.121-2.278-3.375l-1.519-.168c-.281-.141-.253-.788 0-.872h4.978 3.712c.24.241.24.63 0 .872h-.562c-1.462.168-1.49 1.152-1.49 2.812z"/><path d="m341.779 257.463c0-3.627 0-4.162-2.137-4.415h-.562c-.213-.251-.213-.62 0-.872h4.105 6.58c1.574.086 3.15.086 4.725 0 .273 1.535.462 3.084.562 4.641-.141.197-.703.281-.872 0-.534-1.631-.844-2.812-2.812-3.291-1.113-.203-2.245-.278-3.375-.225h-2.503c-1.068 0-1.068 0-1.068 1.406v6.975c0 .984 0 .984 1.153.984h2.024c.999.041 1.999-.034 2.981-.226.421 0 .646-.337.843-1.21l.281-1.434c.251-.242.649-.242.899 0v3.516 3.374c-.264.206-.635.206-.899 0l-.337-1.378c0-.619-.366-1.152-1.068-1.322-.928-.168-1.872-.225-2.812-.168h-2.025c-1.04 0-1.152 0-1.152.956v4.894c0 1.855 0 3.037.675 3.627.675.591 1.153.815 4.218.815 1.512.166 3.041-.017 4.472-.534 1.095-.898 1.946-2.06 2.475-3.375.311-.168.698-.055.872.254-.395 1.652-.921 3.27-1.575 4.836-3.149 0-6.243 0-9.336 0h-3.149c-1.49 0-2.812 0-4.753 0-.213-.251-.213-.619 0-.871h1.153c1.996-.169 2.165-.675 2.165-4.359z"/><path d="m363.826 257.491c0-3.318 0-3.909-1.547-4.077h-1.097c-.24-.197-.276-.551-.08-.792.024-.029.051-.056.08-.08 1.94-.169 4.358-.281 7.762-.281 2.005-.13 4.012.228 5.849 1.04 1.812.942 2.91 2.854 2.812 4.894-.153 2.548-1.797 4.765-4.189 5.651-.197.197 0 .562.168.844 1.844 3.436 4.205 6.565 7.002 9.28.688.565 1.531.909 2.418.984.17 0 .197.337 0 .478-.504.134-1.025.191-1.546.17-2.952 0-4.725-.873-7.199-4.388-.928-1.294-2.362-3.712-3.431-5.286-.539-.818-1.506-1.248-2.475-1.098-1.574 0-1.631 0-1.631.76v4.387c0 3.684 0 4.105 2.081 4.359h.731c.225.246.225.625 0 .871-1.547 0-2.812 0-4.135 0-1.321 0-2.812 0-4.358 0-.202-.256-.202-.616 0-.871h.872c2.024-.226 2.109-.676 2.109-4.359zm2.813 4.978c-.068.381-.068.771 0 1.152 0 0 .646.197 2.418.197 1.271.107 2.539-.22 3.6-.928 1.256-1.07 1.907-2.689 1.743-4.331.138-2.839-2.054-5.251-4.892-5.388-.244-.012-.489-.006-.732.017-2.165 0-2.25 0-2.25 1.125z"/><path d="m401.93 275.798c-1.9.052-3.78-.395-5.455-1.294-.568-1.561-.881-3.203-.928-4.865.168-.252.702-.309.843 0 .526 2.927 3.02 5.092 5.99 5.203 2.179.218 4.122-1.372 4.34-3.551.016-.156.021-.313.019-.471.095-2.031-1.004-3.933-2.812-4.865l-3.318-2.165c-2.192-1.24-3.61-3.504-3.769-6.018 0-3.318 2.587-5.989 7.143-5.989 1.093.014 2.18.164 3.234.449.392.121.799.188 1.209.197.413 1.387.631 2.826.646 4.273 0 .197-.703.311-.871 0-.318-2.353-2.381-4.073-4.753-3.965-1.999-.284-3.85 1.105-4.135 3.104-.036.258-.046.519-.027.777.178 1.867 1.274 3.523 2.925 4.415l2.812 1.743c2.554 1.277 4.212 3.84 4.33 6.693-.048 3.634-3.032 6.541-6.666 6.493-.253-.003-.506-.021-.758-.054"/><path d="m418.774 254.623c2.739-1.96 6.055-2.949 9.42-2.812 2.08.027 4.148.311 6.159.844.319.095.65.142.983.141 0 .787.197 2.98.479 5.118-.266.233-.663.233-.928 0-.642-3.344-3.804-5.588-7.171-5.09-5.315 0-9.871 3.402-9.871 10.602 0 7.198 4.641 11.248 10.377 11.248 3.268.125 6.229-1.91 7.283-5.005.268-.197.633-.197.9 0-.232 1.688-.797 3.312-1.659 4.779-.421.093-.835.215-1.237.366-1.829.522-3.723.788-5.624.788-3.057.113-6.076-.701-8.661-2.335-3.062-2.149-4.853-5.681-4.781-9.421-.047-3.602 1.585-7.021 4.415-9.251"/><path d="m447.907 263.986c-1.659 0-1.743 0-1.743 1.098v4.921c0 3.684.196 4.161 2.137 4.358h1.013c.213.252.213.621 0 .872-1.885 0-3.065 0-4.415 0s-2.812 0-4.05 0c-.213-.251-.213-.62 0-.872h.591c1.94-.337 2.024-.675 2.024-4.358v-12.542c0-3.656-.253-4.274-2.081-4.415h-.899c-.213-.251-.213-.62 0-.872h4.387s2.531 0 4.05 0c.196 0 .281.731 0 .872h-.647c-2.024.226-2.108.759-2.108 4.415v3.993c0 1.097 0 1.125 1.743 1.125h9.982c1.688 0 1.744 0 1.744-1.125v-3.993c0-3.656 0-4.189-2.138-4.415h-.646c-.192-.259-.192-.612 0-.872h4.218 4.134c.197 0 .281.731 0 .872h-.73c-2.025.226-2.081.759-2.081 4.415v12.542c0 3.684 0 4.134 2.081 4.358h.844c.225 0 .14.76 0 .872-1.688 0-2.812 0-4.247 0-1.434 0-2.671 0-4.218 0-.202-.255-.202-.616 0-.872h.646c2.138-.337 2.138-.675 2.138-4.358v-4.921c0-1.041 0-1.098-1.744-1.098z"/><path d="m469.926 263.986c-.143-6.66 5.142-12.176 11.803-12.318.199-.004.399-.004.599.002 6.326-.363 11.749 4.471 12.111 10.797.022.385.025.77.009 1.154.156 6.568-5.041 12.02-11.608 12.176-.171.004-.341.004-.512.001-6.466.373-12.01-4.565-12.383-11.032-.015-.259-.021-.519-.019-.78m21.034.733c0-5.766-2.559-11.98-9.224-11.98-3.627 0-8.437 2.475-8.437 10.124 0 5.174 2.503 11.866 9.364 11.866 4.19 0 8.184-3.148 8.184-10.01"/><path d="m499.368 263.986c-.127-6.676 5.183-12.191 11.86-12.318.189-.004.379-.003.569.002 6.326-.363 11.748 4.471 12.111 10.797.022.385.025.77.009 1.154.141 6.584-5.083 12.035-11.666 12.176-.151.003-.303.004-.454.001-6.481.372-12.038-4.579-12.41-11.06-.014-.25-.021-.501-.019-.752m21.034.733c0-5.766-2.53-11.98-9.195-11.98-3.628 0-8.437 2.475-8.437 10.124 0 5.174 2.531 11.866 9.393 11.866 4.19 0 8.155-3.148 8.155-10.01"/><path d="m531.426 257.463c0-3.656 0-4.218-2.277-4.415h-.872c-.213-.251-.213-.62 0-.872h4.527s2.56 0 4.303 0c.196 0 .281.731 0 .872h-.844c-2.053.197-2.109.759-2.109 4.415v12.008c0 2.221 0 3.121.731 3.768s1.04.816 3.796.816 3.712-.141 4.247-.45c1.077-.914 1.876-2.112 2.306-3.459.225-.169.871 0 .871.226-.343 1.66-.832 3.289-1.462 4.864-1.771 0-5.09 0-8.689 0h-3.205c-1.463 0-2.588 0-4.528 0-.213-.251-.213-.62 0-.872h1.069c2.024-.197 2.08-.675 2.08-4.358z"/><path d="m226.962 303.355c-.312 2.983-1.631 5.771-3.74 7.902-1.237 1.497-3.064 2.38-5.006 2.419-2.221 0-3.684-1.659-3.487-4.641.346-2.96 1.684-5.716 3.796-7.817 1.238-1.382 2.983-2.203 4.837-2.277 2.475 0 3.684 1.855 3.543 4.414m-6.354-1.686c-1.83 2.592-3.024 5.578-3.487 8.718 0 1.237.422 2.249 1.434 2.249 1.013 0 1.659-.337 2.812-1.828 1.671-2.55 2.783-5.425 3.262-8.436 0-1.069-.197-2.306-1.406-2.306-.703 0-1.546.337-2.559 1.687"/><path d="m237.086 300.74c-.225.592-.506 1.688-.9 3.234-1.068 3.909-1.997 7.255-3.121 11.08-.487 2.067-1.45 3.994-2.812 5.624-1.122 1.115-2.611 1.784-4.19 1.884-1.884 0-2.531-1.181-2.531-1.716.024-.613.311-1.187.788-1.574.233-.204.582-.204.815 0 .671.791 1.614 1.302 2.643 1.435.703 0 1.435-.226 2.222-2.812 1.603-5.624 2.812-11.501 4.5-17.182h-2.84c-.292-.402-.203-.965.199-1.258.018-.012.036-.024.054-.036h3.009c.664-3.065 1.999-5.946 3.909-8.437 1.331-1.766 3.412-2.807 5.624-2.812 1.411-.131 2.664.897 2.812 2.306 0 .928-.956 1.996-1.519 1.996s-.45-.309-.478-.562c0-1.913-1.068-2.56-1.94-2.56s-1.715.703-2.531 1.912c-1.636 2.504-2.826 5.273-3.515 8.184h4.359c.258.451.108 1.025-.337 1.293h-4.22z"/><path d="m265.404 305.071c-.253-.759-.394-.843-1.435-.843h-5.287c-.844 0-1.068 0-1.322.814l-1.209 3.797c-.366.903-.621 1.848-.759 2.812 0 .394.169.619 1.012.675h1.153c.241.221.257.594.037.835-.012.013-.024.025-.037.037-.9 0-1.997 0-3.628 0-1.153 0-2.418 0-3.346 0-.197 0-.281-.703 0-.872h1.125c.993-.049 1.843-.729 2.109-1.687.619-1.604 1.603-3.881 3.065-7.79l3.571-9.42c.393-.766.595-1.615.591-2.475.714-.26 1.339-.719 1.8-1.322.228-.029.447.098.534.31.45 1.547 1.012 3.149 1.519 4.668l4.78 14.061c1.013 3.009 1.462 3.515 2.981 3.684h.928c.225.247.225.625 0 .872-1.435 0-2.644 0-4.218 0s-3.009 0-3.993 0c-.241-.22-.257-.594-.038-.834.012-.014.024-.026.038-.038h1.012c.731 0 1.209-.281 1.209-.618-.065-.637-.216-1.261-.45-1.856zm-6.918-3.092c-.281.814-.253.844.731.844h4.303c1.012 0 1.068 0 .759-1.098l-1.884-5.623c-.231-.746-.503-1.479-.815-2.193-.317.668-.599 1.354-.844 2.053z"/><path d="m279.126 295.426c0-3.318 0-3.908-1.519-4.077l-1.125-.141c-.241-.196-.276-.551-.08-.792.024-.029.051-.056.08-.08 1.969-.168 4.359-.281 7.79-.281 1.996-.131 3.994.227 5.821 1.041 1.812.941 2.91 2.853 2.812 4.893-.114 2.654-1.845 4.965-4.359 5.821-.168.196 0 .562.169.843 1.843 3.436 4.205 6.565 7.002 9.28.689.56 1.533.893 2.418.956.14.099.173.291.075.432-.021.029-.046.055-.075.075-.495.132-1.007.188-1.519.168-2.981 0-4.752-.871-7.227-4.387-.928-1.293-2.334-3.712-3.431-5.286-.534-.824-1.505-1.255-2.475-1.098-1.575 0-1.631 0-1.631.76v4.387c0 3.685 0 4.078 2.081 4.359h.731c.213.251.213.62 0 .871-1.575 0-2.812 0-4.162 0s-2.812 0-4.359 0c-.213-.251-.213-.62 0-.871h.872c2.024-.226 2.081-.675 2.081-4.359zm2.812 4.977v1.153s.619.168 2.39.168c1.267.116 2.536-.201 3.6-.899 1.256-1.07 1.907-2.688 1.744-4.331.137-2.838-2.054-5.25-4.893-5.388-.244-.012-.488-.006-.731.017-2.137 0-2.25 0-2.25 1.125z"/><path d="m310.172 307.939c0 3.685 0 4.19 2.081 4.359h1.125c.213.251.213.62 0 .871-1.968 0-3.149 0-4.556 0-1.406 0-2.615 0-4.836 0-.241-.22-.258-.594-.038-.834.012-.013.024-.025.038-.037h1.237c1.997-.169 2.165-.675 2.165-4.359v-15.578c0-1.098 0-1.125-1.041-1.125h-1.912c-1.49-.161-2.993.144-4.302.871-.702.676-1.241 1.504-1.575 2.419-.319.171-.716.059-.9-.253.565-1.7 1.007-3.439 1.322-5.203h.675c.197 1.125 1.35 1.098 2.812 1.098h14.06c1.884 0 2.194 0 2.812-.984.2-.115.446-.115.646 0-.41 1.73-.59 3.508-.534 5.286-.251.243-.649.243-.9 0-.034-.92-.336-1.81-.872-2.559-1.232-.69-2.643-.995-4.049-.872h-2.475c-1.041 0-1.013 0-1.013 1.182z"/><path d="m329.49 313.732c-1.899.052-3.78-.395-5.455-1.293-.567-1.562-.881-3.204-.928-4.865.168-.253.703-.338.844 0 .584 2.932 3.141 5.055 6.13 5.09 2.179.218 4.122-1.372 4.34-3.551.016-.156.022-.313.019-.471.092-2.038-1.004-3.945-2.812-4.893l-3.318-2.137c-2.225-1.221-3.677-3.488-3.853-6.019 0-3.318 2.588-5.989 7.143-5.989 1.093.014 2.18.164 3.234.449.392.121.799.188 1.209.197.414 1.388.631 2.826.646 4.274 0 .196-.703.31-.871 0-.332-2.343-2.391-4.048-4.753-3.937-1.999-.285-3.851 1.104-4.135 3.104-.036.257-.046.518-.026.776.225 1.837 1.339 3.446 2.98 4.303l2.812 1.743c2.565 1.27 4.235 3.834 4.358 6.693-.047 3.634-3.031 6.541-6.666 6.493-.253-.003-.506-.021-.758-.054"/><path d="m363.404 292.361c.016.744-.576 1.361-1.32 1.377-.001 0-.001 0-.002 0-.618 0-.814-.393-.983-1.04-.13-.583-.642-1.001-1.237-1.013-.879.059-1.697.463-2.277 1.125-1.15 1.178-1.779 2.77-1.744 4.415-.029.517.047 1.033.225 1.519.75-.749 1.754-1.19 2.812-1.237 1.548-.124 2.904 1.03 3.027 2.578.007.078.01.155.01.233.005 1.554-1.25 2.816-2.803 2.822-.078 0-.156-.004-.234-.01-1.521.006-2.896-.904-3.486-2.306-.652 1.073-.967 2.317-.9 3.571.148 3.988 3.502 7.102 7.49 6.953.166-.006.331-.018.496-.035 1.977.021 3.904-.612 5.483-1.8 1.942-1.533 3.131-3.828 3.263-6.3.1-1.266-.164-2.533-.76-3.655-.225-.281-.9-.506-2.307-.506-1.314-.108-2.47.87-2.578 2.185-.006.068-.009.137-.008.205-.053.454.254.871.702.957.253 0 .394 0 .562-.45.17-.55.753-.856 1.302-.687.486.15.793.631.723 1.137 0 .955-.955 1.434-1.884 1.434-1.351.031-2.472-1.038-2.503-2.389 0-.038 0-.076 0-.113-.006-.855.316-1.682.9-2.307 1.012-.965 2.37-1.482 3.768-1.434h2.812c1.659 0 5.174 0 5.174-3.684.002-1.5-1.174-2.738-2.671-2.812-.368-.002-.674.28-.703.646 0 .169 0 .31.365.506.401.254.662.68.703 1.153.05.759-.526 1.415-1.286 1.464-.068.005-.137.004-.204-.002-.947.002-1.716-.766-1.718-1.713 0-.029.001-.058.002-.086-.004-1.554 1.25-2.816 2.804-2.822.078 0 .155.004.233.01 2.219.091 3.945 1.963 3.854 4.182-.004.115-.014.23-.029.346.05 1.282-.477 2.52-1.434 3.375-1.456 1.057-3.239 1.564-5.033 1.434-.395 0-.479 0-.338.59.587 1.283.912 2.669.956 4.078-.243 5.443-4.817 9.68-10.264 9.505-4.63.528-8.81-2.797-9.339-7.426-.037-.335-.056-.673-.054-1.011.022-1.971.717-3.875 1.968-5.398-.71-2.555-.179-5.293 1.435-7.396 1.034-1.309 2.581-2.107 4.247-2.193 1.771 0 2.812 1.041 2.812 2.166m-7.031 7.31c.258 1.27 1.35 2.198 2.644 2.25.851.078 1.603-.549 1.681-1.399.004-.04.006-.079.006-.119.004-1.009-.812-1.83-1.822-1.833-.049 0-.098.002-.146.006-.904.027-1.757.424-2.363 1.095"/><path d="m395.828 313.732c-1.893.059-3.766-.388-5.428-1.293-.565-1.563-.888-3.204-.956-4.865.196-.253.703-.338.844 0 .548 2.925 3.044 5.083 6.018 5.202 2.179.218 4.122-1.372 4.34-3.551.016-.156.021-.313.019-.471.078-2.035-1.015-3.935-2.812-4.893l-3.318-2.138c-2.192-1.24-3.61-3.504-3.769-6.018 0-3.318 2.588-5.99 7.115-5.99 1.102.015 2.197.166 3.262.451.392.121.799.188 1.209.196.402 1.39.611 2.827.619 4.274-.252.213-.62.213-.872 0-.317-2.338-2.368-4.046-4.725-3.938-1.999-.284-3.85 1.105-4.134 3.104-.037.258-.047.519-.027.777.188 1.805 1.235 3.406 2.812 4.303l2.812 1.744c2.556 1.264 4.225 3.815 4.358 6.664 0 3.824-2.812 6.439-7.452 6.439"/><path d="m411.856 292.558c2.716-2.022 6.037-3.062 9.421-2.952 2.079.026 4.147.311 6.158.844.325.062.659.062.984 0 0 .814.196 3.008.478 5.146-.266.233-.662.233-.928 0-.642-3.343-3.803-5.587-7.171-5.09-5.314 0-9.87 3.403-9.87 10.602s4.64 11.248 10.376 11.248c3.156.133 6.049-1.754 7.199-4.696.298-.158.664-.101.9.141-.232 1.688-.797 3.312-1.659 4.781-.421.092-.835.214-1.237.365-1.829.522-3.723.788-5.625.787-3.064.11-6.092-.702-8.688-2.334-3.176-2.145-5.041-5.758-4.949-9.589-.056-3.604 1.577-7.028 4.415-9.252"/><path d="m436.406 295.454c0-3.684 0-4.274-2.138-4.472h-.872c-.225-.141-.141-.759 0-.871h4.415 4.303c.213.252.213.62 0 .871h-.872c-2.053.197-2.137.788-2.137 4.472v12.43c0 3.684 0 4.189 2.137 4.415h.872c.213.251.213.62 0 .871-1.743 0-2.812 0-4.303 0-1.49 0-2.812 0-4.415 0-.213-.251-.213-.62 0-.871h.872c2.053-.226 2.138-.731 2.138-4.415z"/><path d="m449.932 295.398c0-3.628 0-4.162-2.137-4.387h-.562c-.213-.252-.213-.621 0-.873h4.105 6.553c1.573.086 3.15.086 4.724 0 .276 1.534.455 3.084.534 4.641-.242.209-.601.209-.844 0-.534-1.631-.844-2.812-2.812-3.29-1.113-.202-2.245-.278-3.375-.226h-2.306c-1.068 0-1.068 0-1.068 1.406v6.975c0 .984 0 .984 1.152.984h2.025c.999.041 1.999-.034 2.98-.226.422-.141.646-.337.815-1.209l.281-1.435c.197-.225.787-.225.928 0v3.516 3.346c0 .254-.73.254-.928 0l-.281-1.406c0-.618-.365-1.152-1.068-1.321-.928-.168-1.871-.225-2.812-.169h-2.024c-1.04 0-1.153 0-1.153.928v4.922c0 1.855 0 3.037.676 3.628.675.59 1.152.815 4.218.815 1.572.252 3.182.127 4.696-.366 1.086-.907 1.935-2.065 2.475-3.374.311-.168.699-.056.871.253-.394 1.652-.92 3.27-1.574 4.837-3.149 0-6.243 0-9.336 0h-3.149c-1.491 0-2.812 0-4.753 0-.213-.252-.213-.62 0-.872h1.153c1.969-.169 2.165-.675 2.165-4.358z"/><path d="m490.791 307.236v6.131c0 .196-.281.365-.675.365-.394-.591-1.434-1.8-4.442-5.259l-8.1-9.224c-.956-1.068-3.318-3.937-4.049-4.695-.154.748-.211 1.514-.169 2.277v7.593c-.114 2.426.095 4.855.618 7.227.484.457 1.137.691 1.8.647h1.069c.225.246.225.624 0 .871-1.575 0-2.812 0-4.078 0s-2.418 0-3.627 0c-.226-.247-.226-.625 0-.871h.956c.787 0 1.35-.31 1.519-.675.415-2.376.565-4.79.449-7.199v-10.096c.114-.904-.161-1.813-.759-2.503-.619-.496-1.374-.79-2.165-.844h-.591c-.197-.225-.197-.73 0-.871h3.937c.534.031 1.069.031 1.604 0 1.726 2.752 3.723 5.323 5.961 7.677l3.375 3.796c2.418 2.812 4.134 4.641 5.624 6.327.104-.491.104-.998 0-1.49v-7.508c.123-2.429-.104-4.863-.675-7.228-.226-.309-.787-.506-2.165-.703h-.591c-.253-.225-.226-.759 0-.871h4.105s2.418 0 3.6 0c.239.241.239.631 0 .871h-.506c-1.098.197-1.8.479-1.94.731-.484 2.367-.664 4.786-.534 7.199z"/><path d="m501.618 292.558c2.718-2.018 6.037-3.058 9.42-2.952 2.089.027 4.167.312 6.187.844.325.064.659.064.984 0 0 .814.197 3.008.479 5.146-.274.237-.682.237-.956 0-.615-3.348-3.778-5.602-7.143-5.09-5.344 0-9.871 3.403-9.871 10.602s4.641 11.248 10.349 11.248c3.275.129 6.246-1.906 7.312-5.005.298-.158.664-.102.899.141-.245 1.684-.808 3.306-1.658 4.78-.421.092-.835.214-1.238.365-1.828.523-3.722.788-5.624.787-3.065.114-6.094-.699-8.688-2.334-3.176-2.145-5.041-5.758-4.949-9.589.066-3.509 1.721-6.798 4.497-8.943"/><path d="m526.139 295.398c0-3.628 0-4.162-2.108-4.387h-.562c-.225-.141-.141-.76 0-.873h4.134 6.552c1.564.086 3.132.086 4.696 0 .288 1.533.477 3.084.562 4.641-.141.197-.703.281-.872 0-.506-1.631-.843-2.812-2.643-3.29-1.113-.202-2.245-.278-3.375-.226h-2.53c-1.041 0-1.041 0-1.041 1.406v6.975c0 .984 0 .984 1.153.984h2.024c.943.031 1.887-.045 2.812-.226.422-.141.675-.337.843-1.209l.281-1.435c.251-.242.649-.242.9 0v3.516 3.346c-.256.229-.644.229-.9 0l-.309-1.377c-.05-.629-.489-1.158-1.097-1.322-.881-.16-1.777-.217-2.672-.169h-2.024c-1.041 0-1.153 0-1.153.929v4.921c0 1.855 0 3.037.675 3.627.675.591 1.153.815 4.219.815 1.502.165 3.022-.018 4.442-.534 1.098-.903 1.956-2.062 2.503-3.374.312-.168.699-.056.872.253-.394 1.652-.92 3.27-1.575 4.837-3.149 0-6.242 0-9.364 0h-3.121c-1.519 0-2.812 0-4.752 0-.213-.252-.213-.62 0-.872h1.152c1.997-.169 2.165-.675 2.165-4.358z"/><path d="m551.616 313.732c-1.9.057-3.782-.39-5.455-1.293-.567-1.562-.881-3.204-.928-4.865.169-.253.675-.338.815 0 .548 2.925 3.044 5.083 6.018 5.202 2.179.218 4.122-1.372 4.34-3.551.016-.156.021-.313.019-.471.092-2.038-1.005-3.945-2.812-4.893l-3.318-2.138c-2.192-1.281-3.581-3.592-3.684-6.13 0-3.318 2.587-5.989 7.114-5.989 1.102.014 2.197.164 3.262.449.393.121.799.188 1.21.197.402 1.389.61 2.828.618 4.274-.252.212-.62.212-.872 0-.317-2.338-2.367-4.046-4.724-3.937-1.999-.285-3.851 1.104-4.135 3.104-.037.257-.046.518-.027.776.219 1.831 1.322 3.439 2.952 4.303l2.812 1.743c2.564 1.27 4.235 3.834 4.358 6.693-.047 3.634-3.031 6.541-6.665 6.493-.254-.003-.507-.021-.759-.054"/></g></svg>