<svg viewBox="0 0 236.6 68.9" xmlns="http://www.w3.org/2000/svg" xmlns:xlink="http://www.w3.org/1999/xlink"><clipPath id="a"><path d="m6.3 5.1h40.3v43.4h-40.3z"/></clipPath><clipPath id="b"><path d="m6.3 5.1h40.3v43.4h-40.3z"/></clipPath><clipPath id="c"><path d="m6.3 5.1h40.3v43.4h-40.3z"/></clipPath><clipPath id="d"><path d="m6.3 5.1h40.3v43.4h-40.3z"/></clipPath><clipPath id="e"><path d="m52.9 9.6h180v24.6h-180z"/></clipPath><clipPath id="f"><path d="m52.9 9.6h180v24.6h-180z"/></clipPath><clipPath id="g"><path d="m52.9 9.6h180v24.6h-180z"/></clipPath><clipPath id="h"><path d="m52.9 9.6h180v24.6h-180z"/></clipPath><clipPath id="i"><path d="m52.9 9.6h180v24.6h-180z"/></clipPath><clipPath id="j"><path d="m52.9 9.6h180v24.6h-180z"/></clipPath><clipPath id="k"><path d="m52.9 9.6h180v24.6h-180z"/></clipPath><clipPath id="l"><path d="m52.9 9.6h180v24.6h-180z"/></clipPath><clipPath id="m"><path d="m52.9 9.6h180v24.6h-180z"/></clipPath><clipPath id="n"><path d="m52.9 9.6h180v24.6h-180z"/></clipPath><clipPath id="o"><path d="m52.9 9.6h180v24.6h-180z"/></clipPath><clipPath id="p"><path d="m52.9 9.6h180v24.6h-180z"/></clipPath><clipPath id="q"><path d="m-37-38.3h313v142h-313z"/></clipPath><clipPath id="r"><path d="m-37-38.3h313v142h-313z"/></clipPath><clipPath id="s"><path d="m-37-38.3h313v142h-313z"/></clipPath><clipPath id="t"><path d="m-37-38.3h313v142h-313z"/></clipPath><clipPath id="u"><path d="m-37-38.3h313v142h-313z"/></clipPath><clipPath id="v"><path d="m-37-38.3h313v142h-313z"/></clipPath><clipPath id="w"><path d="m-37-38.3h313v142h-313z"/></clipPath><clipPath id="x"><path d="m-37-38.3h313v142h-313z"/></clipPath><clipPath id="y"><path d="m-37-38.3h313v142h-313z"/></clipPath><clipPath id="z"><path d="m-37-38.3h313v142h-313z"/></clipPath><clipPath id="A"><path d="m-37-38.3h313v142h-313z"/></clipPath><clipPath id="B"><path d="m-37-38.3h313v142h-313z"/></clipPath><clipPath id="C"><path d="m-37-38.3h313v142h-313z"/></clipPath><clipPath id="D"><path d="m-37-38.3h313v142h-313z"/></clipPath><clipPath id="E"><path d="m-37-38.3h313v142h-313z"/></clipPath><clipPath id="F"><path d="m-37-38.3h313v142h-313z"/></clipPath><clipPath id="G"><path d="m-37-38.3h313v142h-313z"/></clipPath><clipPath id="H"><path d="m-37-38.3h313v142h-313z"/></clipPath><clipPath id="I"><path d="m-37-38.3h313v142h-313z"/></clipPath><clipPath id="J"><path d="m-37-38.3h313v142h-313z"/></clipPath><clipPath id="K"><path d="m-37-38.3h313v142h-313z"/></clipPath><clipPath id="L"><path d="m-37-38.3h313v142h-313z"/></clipPath><clipPath id="M"><path d="m-37-38.3h313v142h-313z"/></clipPath><clipPath id="N"><path d="m-37-38.3h313v142h-313z"/></clipPath><clipPath id="O"><path d="m-37-38.3h313v142h-313z"/></clipPath><clipPath id="P"><path d="m-37-38.3h313v142h-313z"/></clipPath><clipPath id="Q"><path d="m-37-38.3h313v142h-313z"/></clipPath><clipPath id="R"><path d="m-37-38.3h313v142h-313z"/></clipPath><g fill="#fff"><path clip-path="url(#a)" d="m37.6 9.5c0-.1-2-1-2-1-2.4-.5-6.5-.3-9.3.7-2.8-1-6.8-1.3-9.3-.7 0 0-1.9 1-2 1l-3 6.6c-.1.2.1.3.2.3 4.5-.9 9.7-1.1 14-1.1s9.5.3 14 1.1c.2 0 .3-.1.2-.3zm-11.9 4.8c-3.2-.1-8.8-.1-11.6.9l2-5 1.4-.7-1.5 4c2.9-.5 6.1-.8 9.7.4zm1.4 0v-.3c3.6-1.2 6.8-1 9.7-.4l-1.4-4.1 1.4.7 2 5c-2.8-1.1-8.4-1.1-11.7-.9"/><path clip-path="url(#b)" d="m44.9 7.1c-6.1-1.3-12.3-1.9-18.4-1.9-6.2 0-12.3.7-18.3 1.9h-.2c-1 .2-1.7 1.1-1.7 2.2v3.3c0 23.5 14.6 33.1 19 35.5.4.2.7.3 1.1.3s.7-.1 1.1-.3c4.5-2.4 19-11.9 19-35.5v-3.3c0-1.1-.7-2-1.6-2.2m-19.3 39.5c-4.9-2.7-14.8-10.4-17.4-26.2h.1c5.6-1.2 11.4-1.8 17.2-1.9zm15.6-15.1c-.1 0-.1 0 0 0-1.1 2.2-2.2 4.1-3.5 5.8-1.1 1.5-2.3 2.9-3.5 4v-6.4l-3.5-2.3v11.7c-1.3 1-2.5 1.7-3.5 2.3v-16.3l3.5 2.3v-8.1l3.5 2.3v-8c1.2.1 2.3.2 3.5.4v9.9l3.5 2.4v-11.7l3.3.6h.1c-.7 4.3-1.9 7.9-3.4 11.1m-14-9.3v-3.7c1.2 0 2.3 0 3.5.1v5.9zm18-9.7c0 2.1-.1 4.2-.4 6.1-12.1-2.6-24.8-2.6-36.9 0-.2-1.9-.4-3.9-.4-6.1v-3.3c0-.4.3-.8.7-.9 5.8-1.2 11.9-1.9 18.1-1.9s12.2.7 18 1.9c.4.1.8.5.8.9z"/><path clip-path="url(#c)" d="m37.7 29.2-3.5-2.3v8.1l3.5 2.3z"/><path clip-path="url(#d)" d="m18.1 34.3c3.5 0 6.4-2.9 6.4-6.4s-2.9-6.4-6.4-6.4-6.4 2.9-6.4 6.4c.1 3.5 2.9 6.4 6.4 6.4m1.2-1c.5-.5 1.1-1.3 1.5-2.3.6.1 1.1.3 1.6.5-.8.9-1.9 1.6-3.1 1.8m3.6-2.5c-.5-.2-1.1-.4-1.8-.5.2-.6.3-1.2.4-2h2.2c-.1.9-.4 1.8-.8 2.5m0-5.8c.5.7.8 1.6.8 2.5h-2.2c0-.7-.2-1.4-.4-2 .7-.1 1.3-.3 1.8-.5m-.5-.7c-.4.2-1 .3-1.6.5-.4-1-1-1.8-1.5-2.3 1.2.2 2.3.9 3.1 1.8m-3.9-1.5c.4.4 1 1.2 1.5 2.1-.4.1-.9.1-1.5.1zm0 3c.6 0 1.2-.1 1.8-.2.2.5.3 1.2.3 1.8h-2.1zm0 2.5h2.1c0 .7-.2 1.3-.4 1.8-.5-.1-1.1-.1-1.8-.2v-1.6zm0 2.5c.5 0 1 .1 1.5.1-.4.9-1 1.6-1.5 2.1zm-4.6.7c.4-.2 1-.3 1.6-.5.4 1 1 1.8 1.5 2.3-1.3-.2-2.3-.9-3.1-1.8m3.8 1.5c-.4-.4-1-1.2-1.4-2.1.4-.1.9-.1 1.4-.1zm0-3.1c-.6 0-1.2.1-1.8.2-.2-.5-.3-1.2-.4-1.8h2.1zm0-2.4h-2.1c0-.7.2-1.3.4-1.8.5.1 1.1.1 1.8.2zm0-2.5c-.5 0-1-.1-1.4-.1.4-.9 1-1.6 1.4-2.1zm-.7-2.6c-.5.5-1.1 1.3-1.5 2.3-.6-.1-1.1-.3-1.6-.5.8-.8 1.8-1.5 3.1-1.8m-3.6 2.6c.5.2 1.1.4 1.8.5-.2.6-.3 1.2-.4 2h-2.2c0-.9.3-1.8.8-2.5m-.8 3.3h2.2c0 .7.2 1.4.4 2-.7.2-1.3.4-1.8.6-.5-.8-.8-1.7-.8-2.6"/><path clip-path="url(#e)" d="m58 14c0-3.2-.3-3.5-2-3.6l-.7-.1c-.2-.1-.1-.6.1-.7 1.7.1 2.6.1 3.8.1 1.1 0 2.1 0 3.2-.1.2.1.2.6.1.7l-.4.1c-1.7.2-1.7.6-1.7 3.6v10.6c0 2.2-.1 4.2-.7 5.5-.9 2.3-3 4.1-5.6 4.1-.3 0-1.2 0-1.2-.6 0-.5.4-1.3 1-1.3.3 0 .7.1 1.1.2s.8.2 1.2.2c.6 0 .9-.3 1.1-.7.7-1.3.7-5.6.7-7.1z"/><path clip-path="url(#f)" d="m62.5 20.7c0-4.8 3.6-8.5 8.5-8.5 5.5 0 8.3 4 8.3 8.2 0 4.8-3.7 8.4-8.3 8.4-5.3.1-8.5-3.8-8.5-8.1m14.4.5c0-4-1.8-8.2-6.3-8.2-2.5 0-5.7 1.7-5.7 7 0 3.5 1.7 8.2 6.5 8.2 2.8-.1 5.5-2.2 5.5-7"/><path clip-path="url(#g)" d="m84.8 20.7c-1.2 0-1.2 0-1.2.8v3.4c0 2.5.1 2.9 1.5 3l.7.1c.1.1.1.5 0 .6-1.3 0-2.1-.1-3-.1-1 0-1.8 0-2.8.1-.1-.1-.2-.5 0-.6l.4-.1c1.3-.2 1.4-.5 1.4-3v-8.6c0-2.5-.2-2.9-1.4-3h-.6c-.1-.1-.1-.5 0-.6 1.2 0 2 .1 3 .1.9 0 1.8 0 2.8-.1.1.1.2.5 0 .6h-.5c-1.4.1-1.4.5-1.4 3v2.8c0 .7 0 .8 1.2.8h6.9c1.2 0 1.2 0 1.2-.8v-2.8c0-2.5 0-2.9-1.5-3h-.5c-.1-.1-.1-.5 0-.6 1.1 0 1.9.1 2.9.1.9 0 1.8 0 2.8-.1.1.1.2.5 0 .6h-.5c-1.4.1-1.4.5-1.4 3v8.6c0 2.5 0 2.8 1.4 3l.6.1c.1.1.1.5 0 .6-1.1 0-2-.1-2.9-.1-1 0-1.8 0-2.9.1-.1-.1-.2-.5 0-.6l.5-.1c1.5-.2 1.5-.5 1.5-3v-3.4c0-.7 0-.8-1.2-.8z"/><path clip-path="url(#h)" d="m113.2 24.4c0 .7 0 3.6.1 4.2 0 .1-.2.3-.5.3-.3-.4-1-1.2-3.1-3.6l-5.6-6.3c-.6-.7-2.3-2.7-2.8-3.2-.1.3-.1.8-.1 1.6v5.2c0 1.1 0 4.2.4 5 .1.3.6.4 1.2.5l.7.1c.1.2.1.5 0 .6-1.1 0-1.9-.1-2.8-.1-1 0-1.7 0-2.5.1-.2-.1-.2-.5 0-.6l.6-.1c.6-.1.9-.2 1.1-.5.3-.9.3-3.8.3-4.9v-6.9c0-.7 0-1.2-.5-1.7-.3-.3-.9-.5-1.5-.6h-.4c-.1-.1-.1-.5 0-.6 1 .1 2.3.1 2.7.1s.8 0 1.1-.1c.5 1.2 3.3 4.4 4.1 5.3l2.3 2.6c1.7 1.8 2.8 3.2 4 4.3.1-.1.1-.5.1-1v-5.4c0-1.1 0-4.2-.5-5-.1-.2-.5-.4-1.5-.5h-.4c-.2-.1-.1-.5 0-.6 1.1 0 1.9.1 2.8.1 1 0 1.7 0 2.5-.1.2.1.2.5 0 .6h-.3c-.8.1-1.2.3-1.3.5-.4.9-.4 3.8-.4 4.9z"/><path clip-path="url(#i)" d="m119.6 28.9c-2 0-3.3-.6-3.7-.9-.3-.5-.6-2.2-.6-3.4.1-.2.5-.2.6-.1.4 1.2 1.3 3.6 4.1 3.6 2 0 3-1.3 3-2.8 0-1.1-.2-2.2-2-3.4l-2.3-1.5c-1.2-.8-2.6-2.2-2.6-4.1 0-2.3 1.8-4.1 4.9-4.1.7 0 1.6.1 2.2.3.3.1.6.1.8.1.2.6.4 1.9.4 2.9-.1.1-.5.2-.6.1-.3-1.2-1-2.7-3.3-2.7-2.4 0-2.9 1.6-2.9 2.7 0 1.4 1.2 2.4 2 3l1.9 1.2c1.5.9 3 2.3 3 4.6.2 2.7-1.8 4.5-4.9 4.5"/><path clip-path="url(#j)" d="m138.9 19.3c-1.4 0-1.4.1-1.4.9v4c0 3 .1 3.4 1.7 3.6l.8.1c.2.1.1.6-.1.7-1.5-.1-2.5-.1-3.6-.1-1.2 0-2.2.1-3.3.1-.2-.1-.2-.5-.1-.7l.5-.1c1.6-.3 1.6-.6 1.6-3.6v-10.2c0-3-.2-3.5-1.7-3.6l-.7-.1c-.2-.1-.1-.6.1-.7 1.4 0 2.4.1 3.6.1 1.1 0 2.1 0 3.3-.1.2.1.2.6.1.7l-.5.1c-1.6.2-1.7.6-1.7 3.6v3.3c0 .9.1.9 1.4.9h8.1c1.4 0 1.4 0 1.4-.9v-3.3c0-3-.1-3.4-1.7-3.6l-.5-.1c-.2-.1-.1-.6.1-.7 1.3.1 2.3.1 3.4.1s2.1 0 3.4-.1c.2.1.2.6.1.7l-.6.1c-1.6.2-1.7.6-1.7 3.6v10.2c0 3 .1 3.4 1.7 3.6l.7.1c.2.1.1.6-.1.7-1.4-.1-2.3-.1-3.4-.1-1.2 0-2.2 0-3.4.1-.2-.1-.2-.5-.1-.7l.5-.1c1.7-.3 1.7-.6 1.7-3.6v-4c0-.9-.1-.9-1.4-.9z"/><path clip-path="url(#k)" d="m153 20.7c0-4.8 3.6-8.5 8.5-8.5 5.5 0 8.3 4 8.3 8.2 0 4.8-3.7 8.4-8.3 8.4-5.3.1-8.5-3.8-8.5-8.1m14.5.5c0-4-1.8-8.2-6.3-8.2-2.5 0-5.7 1.7-5.7 7 0 3.5 1.7 8.2 6.5 8.2 2.8-.1 5.5-2.2 5.5-7"/><path clip-path="url(#l)" d="m174.2 24.9c0 2.5 0 2.8 1.6 3l.6.1c.1.1.1.5 0 .6-1.4 0-2.2-.1-3.1-.1-1 0-1.9 0-2.9.1-.1-.1-.2-.5 0-.6l.5-.1c1.4-.2 1.4-.5 1.4-3v-8.9c0-2 0-2.4-1.1-2.6l-.9-.1c-.2-.1-.1-.5 0-.6 1.3-.2 2.8-.2 4.8-.2s3.5.3 4.6 1 1.9 1.9 1.9 3.6c0 2.2-1.4 3.3-2.4 3.8-1.1.5-2.3.7-3.3.7-.2-.1-.2-.4 0-.5 2.6-.5 3.5-1.9 3.5-4 0-2.3-1.4-3.8-3.9-3.8-1.3 0-1.3.1-1.3.9z"/><path clip-path="url(#m)" d="m184.2 16.2c0-2.5 0-2.9-1.4-3h-.6c-.1-.1-.1-.5 0-.6 1.2 0 1.9.1 3 .1.9 0 1.8 0 2.8-.1.1.1.2.5 0 .6h-.5c-1.4.1-1.4.5-1.4 3v2.8c0 .5 0 .9.3.9.2 0 .5-.1.7-.3.3-.3 1-.9 1.2-1.2l2.6-2.6c.5-.4 1.6-1.7 1.9-2 .1-.2.2-.3.2-.4s-.1-.2-.4-.2l-.6-.1c-.2-.2-.1-.5 0-.6.8 0 1.8.1 2.6.1s1.7 0 2.4-.1c.2.1.2.5 0 .6-.6 0-1.6.3-2.2.7-.7.4-2 1.5-3.4 2.8l-2.2 2c-.3.3-.6.6-.6.7 0 .2.1.4.5.7 2.3 2.6 4.1 4.8 6 6.7.6.6 1 .9 1.8 1l.5.1c.2.1.1.5 0 .6-.6 0-1.3-.1-2.4-.1-1 0-1.8 0-2.9.1-.2 0-.2-.5-.1-.6l.6-.1c.3 0 .6-.1.6-.2s-.2-.3-.3-.6c-.5-.6-1.1-1.2-2-2.3l-1.9-2.2c-1.4-1.5-1.8-2-2.3-2-.4 0-.4.3-.4 1.2v3.1c0 2.5 0 2.9 1.4 3l.6.1c.1.1.1.5 0 .6-1.2 0-2-.1-2.9-.1-1 0-1.8 0-2.8.1-.1-.1-.2-.4 0-.6l.5-.1c1.3-.2 1.3-.5 1.3-3z"/><path clip-path="url(#n)" d="m200.7 16.3c0-2.5 0-3-1.5-3.1h-.6c-.1-.1-.1-.5 0-.6 1.2 0 2 .1 3 .1s1.8 0 3-.1c.1.1.2.5 0 .6h-.6c-1.4.1-1.5.5-1.5 3.1v8.5c0 2.5 0 2.9 1.5 3l.6.1c.1.1.1.5 0 .6-1.2 0-2-.1-3-.1s-1.7 0-2.9.1c-.1-.1-.2-.5 0-.6l.5-.1c1.4-.2 1.5-.5 1.5-3z"/><path clip-path="url(#o)" d="m221.5 24.4c0 .7 0 3.6.1 4.2 0 .1-.2.3-.5.3-.3-.4-1-1.2-3.1-3.6l-5.6-6.3c-.6-.7-2.3-2.7-2.8-3.2-.1.3-.1.8-.1 1.6v5.2c0 1.1 0 4.2.4 5 .1.3.6.4 1.2.5l.7.1c.1.2.1.5 0 .6-1.1 0-1.9-.1-2.8-.1-1 0-1.7 0-2.5.1-.2-.1-.2-.5 0-.6l.6-.1c.6-.1.9-.2 1.1-.5.3-.9.3-3.8.3-4.9v-6.9c0-.7 0-1.2-.5-1.7-.3-.3-.9-.5-1.5-.6h-.4c-.1-.1-.1-.5 0-.6 1 .1 2.3.1 2.7.1s.8 0 1.1-.1c.5 1.2 3.3 4.4 4.1 5.3l2.3 2.6c1.7 1.8 2.8 3.2 4 4.3.1-.1.1-.5.1-1v-5.4c0-1.1 0-4.2-.5-5-.1-.2-.5-.4-1.5-.5h-.4c-.2-.1-.1-.5 0-.6 1.1 0 1.9.1 2.8.1 1 0 1.7 0 2.5-.1.2.1.2.5 0 .6h-.3c-.8.1-1.2.3-1.3.5-.4.9-.4 3.8-.4 4.9z"/><path clip-path="url(#p)" d="m227.8 28.9c-2 0-3.3-.6-3.7-.9-.3-.5-.6-2.2-.6-3.4.1-.2.5-.2.6-.1.4 1.2 1.3 3.6 4.1 3.6 2 0 3-1.3 3-2.8 0-1.1-.2-2.2-2-3.4l-2.3-1.5c-1.2-.8-2.6-2.2-2.6-4.1 0-2.3 1.8-4.1 4.9-4.1.7 0 1.6.1 2.2.3.3.1.6.1.8.1.2.6.4 1.9.4 2.9-.1.1-.5.2-.6.1-.3-1.2-1-2.7-3.3-2.7-2.4 0-2.9 1.6-2.9 2.7 0 1.4 1.2 2.4 2 3l1.9 1.2c1.5.9 3 2.3 3 4.6.2 2.7-1.8 4.5-4.9 4.5"/><path clip-path="url(#q)" d="m87.3 41.1c0-1.3 0-1.5-.7-1.6h-.3c-.1 0 0-.3 0-.3h3c.1 0 .1.3 0 .3h-.2c-.7.1-.7.3-.7 1.6v1.4c0 .2 0 .5.2.5.1 0 .3-.1.3-.1.2-.1.5-.5.6-.6l1.3-1.3c.2-.2.8-.9 1-1 .1-.1.1-.2.1-.2s-.1-.1-.2-.1l-.3-.1c-.1-.1-.1-.2 0-.3h2.6c.1.1.1.2 0 .3-.3 0-.8.2-1.2.3-.3.2-1 .8-1.7 1.4l-1.1 1.1c-.2.2-.3.3-.3.4s.1.2.2.4c1.2 1.4 2.1 2.5 3.1 3.5.3.3.6.5 1 .5h.3c.1.1.1.3 0 .3h-2.9c-.1 0-.1-.2-.1-.3l.3-.1c.2 0 .3-.1.3-.1 0-.1-.1-.2-.2-.3-.2-.3-.6-.6-1-1.2l-1-1.1c-.7-.8-.9-1-1.2-1-.2 0-.2.2-.2.6v1.6c0 1.3 0 1.5.7 1.6h.3c.1 0 .1.3 0 .3h-2.9c-.1 0-.1-.2 0-.3h.2c.7-.1.7-.2.7-1.6z"/><path clip-path="url(#r)" d="m96.3 41.1c0-1.2 0-1.4-.5-1.5h-.4c-.1-.1-.1-.3 0-.3.7-.1 1.6-.1 2.8-.1.8 0 1.5.1 2.1.4s1 .9 1 1.7c0 1.2-.9 1.8-1.6 2.1-.1.1 0 .2.1.3 1 1.6 1.6 2.6 2.5 3.3.2.2.5.3.9.3.1 0 .1.1 0 .2-.1 0-.3.1-.5.1-1.1 0-1.7-.3-2.6-1.6-.3-.5-.8-1.3-1.2-1.9-.2-.3-.4-.4-.9-.4-.6 0-.6 0-.6.3v1.6c0 1.3 0 1.5.7 1.5h.3c.1.1.1.3 0 .3h-3.1c-.1 0-.1-.2 0-.3h.3c.7-.1.7-.2.7-1.5zm1 1.8v.4s.2.1.9.1c.4 0 .9 0 1.3-.3.3-.3.6-.7.6-1.5 0-1-.6-1.9-2-1.9-.8 0-.8 0-.8.4z"/><path clip-path="url(#s)" d="m104.9 41.1c0-1.3 0-1.5-.8-1.6h-.3c-.1 0-.1-.3 0-.3h3.1c.1 0 .1.3 0 .3h-.3c-.7.1-.8.3-.8 1.6v4.4c0 1.3 0 1.5.8 1.6h.3c.1 0 0 .3 0 .3h-3.1c-.1 0-.1-.2 0-.3h.3c.7-.1.8-.3.8-1.6z"/><path clip-path="url(#t)" d="m109.7 41.1c0-1.3 0-1.5-.8-1.6h-.2c-.1 0-.1-.3 0-.3h5.5c.1.2.1 1.1.2 1.6 0 .1-.2.1-.3 0-.2-.6-.3-1-.9-1.2-.3-.1-.7-.1-1.2-.1h-.9c-.4 0-.4 0-.4.5v2.5c0 .3 0 .3.4.3h.7c.5 0 .9 0 1.1-.1.1 0 .2-.1.3-.4l.1-.5c.1-.1.3-.1.3 0 0 .3-.1.8-.1 1.3 0 .4.1.9.1 1.2-.1.1-.3.1-.3 0l-.1-.5c0-.2-.1-.4-.4-.5-.2-.1-.5-.1-1-.1h-.7c-.4 0-.4 0-.4.3v1.7c0 .7 0 1.1.2 1.3.1.1.4.3 1.5.3 1 0 1.3 0 1.6-.2.2-.1.6-.6.9-1.2.1-.1.3 0 .3.1-.1.4-.4 1.4-.6 1.7h-6.1c-.1 0-.1-.2 0-.3h.4c.7-.1.8-.2.8-1.6z"/><path clip-path="url(#u)" d="m123.7 46.1c0 .5.1.8.3.9v.1c-.1 0-.4 0-.6.1-.7.2-1.6.3-2.2.3-1.5 0-2.8-.4-3.8-1.4-.7-.7-1.1-1.7-1.1-2.8s.3-2.1 1.1-2.9c.8-.9 2.1-1.5 3.9-1.5.7 0 1.4.1 1.6.2s.6.1.8.1c0 .4.1 1.1.2 1.8 0 .1-.3.1-.3 0-.3-1.3-1.3-1.8-2.5-1.8-2.4 0-3.5 1.7-3.5 3.6 0 2.4 1.2 4.3 3.7 4.3.8 0 1.2-.2 1.4-.4.1-.1.1-.3.1-.7v-.5c0-1 0-1.1-.8-1.2l-.5-.1c-.1 0-.1-.3 0-.3h3.1c.1.1.1.2 0 .3h-.2c-.5.1-.5.4-.5 1z"/><path clip-path="url(#v)" d="m126.8 41.1c0-1.3 0-1.5-.8-1.6h-.2c-.1 0-.1-.3 0-.3h5.5c.1.2.1 1.1.2 1.6 0 .1-.2.1-.3 0-.2-.6-.3-1-.9-1.2-.3-.1-.7-.1-1.2-.1h-.9c-.4 0-.4 0-.4.5v2.5c0 .3 0 .3.4.3h.7c.5 0 .9 0 1.1-.1.1 0 .2-.1.3-.4l.1-.5c.1-.1.3-.1.3 0 0 .3-.1.8-.1 1.3 0 .4.1.9.1 1.2-.1.1-.3.1-.3 0l-.1-.5c0-.2-.1-.4-.4-.5-.2-.1-.5-.1-1-.1h-.7c-.4 0-.4 0-.4.3v1.7c0 .7 0 1.1.2 1.3.1.1.4.3 1.5.3 1 0 1.3 0 1.6-.2.2-.1.6-.6.9-1.2.1-.1.3 0 .3.1-.1.4-.4 1.4-.6 1.7h-6.1c-.1 0-.1-.2 0-.3h.4c.7-.1.8-.2.8-1.6z"/><path clip-path="url(#w)" d="m134.7 41.1c0-1.2 0-1.4-.5-1.5h-.4c-.1-.1-.1-.3 0-.3.7-.1 1.6-.1 2.8-.1.8 0 1.5.1 2.1.4s1 .9 1 1.7c0 1.2-.9 1.8-1.6 2.1-.1.1 0 .2.1.3 1 1.6 1.6 2.6 2.5 3.3.2.2.5.3.9.3.1 0 .1.1 0 .2-.1 0-.3.1-.5.1-1.1 0-1.7-.3-2.6-1.6-.3-.5-.8-1.3-1.2-1.9-.2-.3-.4-.4-.9-.4-.6 0-.6 0-.6.3v1.6c0 1.3 0 1.5.7 1.5h.3c.1.1.1.3 0 .3h-3.1c-.1 0-.1-.2 0-.3h.3c.7-.1.7-.2.7-1.5zm1 1.8v.4s.2.1.9.1c.4 0 .9 0 1.3-.3.3-.3.6-.7.6-1.5 0-1-.6-1.9-2-1.9-.8 0-.8 0-.8.4z"/><path clip-path="url(#x)" d="m148.2 47.6c-1 0-1.7-.3-1.9-.5-.1-.3-.3-1.2-.3-1.7.1-.1.2-.1.3 0 .2.6.7 1.8 2.1 1.8 1 0 1.6-.7 1.6-1.4 0-.5-.1-1.2-1-1.7l-1.2-.8c-.6-.4-1.3-1.1-1.3-2.1 0-1.2.9-2.1 2.5-2.1.4 0 .8.1 1.2.2.2.1.3.1.4.1.1.3.2 1 .2 1.5 0 .1-.2.1-.3 0-.2-.6-.5-1.4-1.7-1.4s-1.5.8-1.5 1.4c0 .7.6 1.2 1.1 1.5l1 .6c.8.5 1.6 1.2 1.6 2.4-.1 1.3-1.2 2.2-2.8 2.2"/><path clip-path="url(#y)" d="m154.2 40.1c.9-.7 2.1-1.1 3.4-1.1.7 0 1.6.1 2.2.3.1 0 .2.1.3 0 0 .3.1 1.1.2 1.8-.1.1-.2.1-.3 0-.2-.8-.7-1.8-2.5-1.8-1.9 0-3.5 1.2-3.5 3.8s1.6 4 3.7 4c1.6 0 2.3-1 2.6-1.8.1-.1.3 0 .3.1-.1.6-.4 1.5-.6 1.7-.1 0-.3.1-.4.1-.3.1-1.2.3-2 .3-1.1 0-2.2-.2-3.1-.8-1-.7-1.8-1.8-1.8-3.4-.1-1.3.6-2.5 1.5-3.2"/><path clip-path="url(#z)" d="m164.6 43.4c-.6 0-.6 0-.6.4v1.8c0 1.3.1 1.5.8 1.6h.4c.1 0 .1.3 0 .3h-3c-.1 0-.1-.2 0-.3h.2c.7-.1.7-.2.7-1.6v-4.5c0-1.3-.1-1.5-.7-1.6h-.3c-.1 0-.1-.3 0-.3h3c.1 0 .1.3 0 .3h-.2c-.7.1-.7.3-.7 1.6v1.4c0 .4 0 .4.6.4h3.5c.6 0 .6 0 .6-.4v-1.4c0-1.3 0-1.5-.8-1.6h-.2c-.1 0-.1-.3 0-.3h3c.1 0 .1.3 0 .3h-.3c-.7.1-.7.3-.7 1.6v4.5c0 1.3 0 1.5.7 1.6h.3c.1 0 0 .3 0 .3h-3c-.1 0-.1-.2 0-.3h.2c.8-.1.8-.2.8-1.6v-1.8c0-.4 0-.4-.6-.4z"/><path clip-path="url(#A)" d="m172.4 43.4c0-2.5 1.9-4.4 4.4-4.4 2.9 0 4.3 2.1 4.3 4.3 0 2.5-1.9 4.3-4.3 4.3-2.7 0-4.4-2-4.4-4.2m7.5.3c0-2-.9-4.3-3.3-4.3-1.3 0-3 .9-3 3.6 0 1.8.9 4.2 3.3 4.2 1.6 0 3-1.1 3-3.5"/><path clip-path="url(#B)" d="m182.9 43.4c0-2.5 1.9-4.4 4.4-4.4 2.9 0 4.3 2.1 4.3 4.3 0 2.5-1.9 4.3-4.3 4.3-2.8 0-4.4-2-4.4-4.2m7.5.3c0-2-.9-4.3-3.3-4.3-1.3 0-3 .9-3 3.6 0 1.8.9 4.2 3.3 4.2 1.5 0 3-1.1 3-3.5"/><path clip-path="url(#C)" d="m194.3 41.1c0-1.3 0-1.5-.8-1.6h-.3c-.1 0 0-.3 0-.3h3.1c.1 0 .1.3 0 .3h-.3c-.7.1-.8.3-.8 1.6v4.3c0 .8 0 1.1.3 1.3.1.1.4.3 1.4.3 1.1 0 1.3 0 1.5-.2.2-.1.6-.6.8-1.2.1-.1.3 0 .3.1s-.3 1.4-.5 1.7h-5.8c-.1 0-.1-.2 0-.3h.4c.7-.1.7-.2.7-1.6z"/><path clip-path="url(#D)" d="m86 57.4c0 .7-.4 1.9-1.3 2.8-.8.8-1.4.9-1.8.9-.8 0-1.3-.6-1.2-1.7 0-.8.5-2 1.4-2.8.6-.6 1.2-.8 1.7-.8.8 0 1.2.7 1.2 1.6m-2.3-.6c-.7 1-1.2 2.4-1.2 3.1 0 .4.1.8.5.8.3 0 .6-.1 1-.6.5-.7 1.1-2.4 1.2-3 0-.4-.1-.8-.5-.8-.3-.1-.6 0-1 .5"/><path clip-path="url(#E)" d="m89.6 56.5c-.1.2-.2.6-.3 1.2-.4 1.4-.7 2.6-1.1 3.9-.3 1.1-.7 1.7-1 2-.2.2-.8.7-1.5.7s-.9-.4-.9-.6.1-.5.3-.6c.1-.1.2 0 .3 0 .3.3.7.5.9.5s.5-.1.8-1c.6-2 1-4.1 1.6-6.1h-1c-.1-.1-.1-.3.1-.5h1.1c.3-1.1.7-2.1 1.4-3 .6-.7 1.3-1 2-1 .5 0 1 .3 1 .8 0 .3-.3.7-.5.7-.1 0-.2-.1-.2-.2 0-.7-.4-.9-.7-.9s-.6.2-.9.7c-.6.8-.8 1.7-1.2 2.9h1.6c.1.1.1.3-.1.5z"/><path clip-path="url(#F)" d="m99.7 58c-.1-.3-.1-.3-.5-.3h-1.9c-.3 0-.4 0-.5.3l-.4 1.3c-.2.6-.3.9-.3 1s.1.2.4.2h.4c.1.1.1.3 0 .3h-2.5c-.1-.1-.1-.2 0-.3h.4c.3 0 .6-.2.7-.6.2-.6.6-1.4 1.1-2.8l1.3-3.3c.2-.4.2-.7.2-.9.3-.1.5-.3.6-.5.1 0 .2 0 .2.1.2.5.4 1.1.5 1.7l1.7 5c.4 1.1.5 1.3 1.1 1.3h.3c.1.1.1.3 0 .3h-2.9c-.1-.1-.1-.2 0-.3h.4c.3 0 .4-.1.4-.2s-.1-.4-.2-.7zm-2.5-1.1c-.1.3-.1.3.3.3h1.5c.4 0 .4-.1.3-.4l-.7-2c-.1-.3-.2-.6-.3-.8 0 .1-.2.4-.3.7z"/><path clip-path="url(#G)" d="m104.5 54.6c0-1.2 0-1.4-.5-1.5h-.4c-.1-.1-.1-.3 0-.3.7-.1 1.6-.1 2.8-.1.8 0 1.5.1 2.1.4s1 .9 1 1.7c0 1.2-.9 1.8-1.6 2.1-.1.1 0 .2.1.3 1 1.6 1.6 2.6 2.5 3.3.2.2.5.3.9.3.1 0 .1.1 0 .2-.1 0-.3.1-.5.1-1.1 0-1.7-.3-2.6-1.6-.3-.5-.8-1.3-1.2-1.9-.2-.3-.4-.4-.9-.4-.6 0-.6 0-.6.3v1.6c0 1.3 0 1.5.7 1.5h.3c.1.1 0 .3 0 .3h-3.1c-.1 0-.1-.2 0-.3h.3c.7-.1.7-.2.7-1.5zm1.1 1.7v.4s.2.1.9.1c.4 0 .9 0 1.3-.3.3-.3.6-.7.6-1.5 0-1-.6-1.9-2-1.9-.8 0-.8 0-.8.4z"/><path clip-path="url(#H)" d="m115.6 59c0 1.3 0 1.5.7 1.6h.4c.1 0 0 .3 0 .3h-3.3c-.1 0-.1-.2 0-.3h.4c.7-.1.8-.2.8-1.6v-5.5c0-.4 0-.4-.4-.4h-.7c-.5 0-1.2 0-1.5.3s-.4.5-.6.9c-.1.1-.3 0-.3-.1.2-.6.4-1.4.5-1.8h.2c.1.4.5.4 1.1.4h5c.7 0 .8 0 1-.3h.2c-.1.5-.2 1.5-.2 1.9-.1.1-.3.1-.3 0 0-.3-.1-.8-.3-.9-.3-.2-.8-.3-1.4-.3h-.9c-.4 0-.4 0-.4.4z"/><path clip-path="url(#I)" d="m122.5 61.1c-1 0-1.7-.3-1.9-.5-.1-.3-.3-1.2-.3-1.7.1-.1.2-.1.3 0 .2.6.7 1.8 2.1 1.8 1 0 1.6-.7 1.6-1.4 0-.5-.1-1.2-1-1.7l-1.2-.8c-.6-.4-1.3-1.1-1.3-2.1 0-1.2.9-2.1 2.5-2.1.4 0 .8.1 1.2.2.2.1.3.1.4.1.1.3.2 1 .2 1.5 0 .1-.2.1-.3 0-.2-.6-.5-1.4-1.7-1.4s-1.5.8-1.5 1.4c0 .7.6 1.2 1.1 1.5l1 .6c.8.5 1.6 1.2 1.6 2.4-.2 1.3-1.2 2.2-2.8 2.2"/><path clip-path="url(#J)" d="m134.5 53.5c0 .3-.2.5-.5.5-.2 0-.3-.1-.3-.4 0-.2-.2-.4-.4-.4s-.5.1-.8.4c-.5.5-.6 1.2-.6 1.6 0 .2 0 .4.1.5.2-.2.5-.4 1-.4.8 0 1.1.6 1.1 1 0 .7-.5 1-1.1 1s-1.1-.4-1.2-.8c-.2.2-.3.6-.3 1.3 0 1.1.8 2.5 2.8 2.5.8 0 1.5-.2 1.9-.6.6-.4 1.2-1.3 1.2-2.3 0-.8-.2-1.2-.3-1.3s-.3-.2-.8-.2-.9.3-.9.8c0 .2.2.3.2.3.1 0 .1 0 .2-.2.1-.1.1-.2.3-.2s.4.2.4.4c0 .3-.3.5-.7.5-.6 0-.9-.4-.9-.9 0-.3.1-.6.3-.8.3-.4 1-.5 1.3-.5h1c.6 0 1.8 0 1.8-1.3 0-.7-.6-1-1-1-.2 0-.2.2-.2.2 0 .1 0 .1.1.2s.3.2.3.4c0 .4-.3.5-.5.5-.3 0-.6-.3-.6-.6 0-.5.3-1 1.1-1 .7 0 1.3.6 1.3 1.6 0 .6-.2.9-.5 1.2-.6.6-1.6.5-1.8.5-.1 0-.2 0-.1.2 0 .1.3.7.3 1.5 0 1.6-1.5 3.4-3.6 3.4-2.6 0-3.3-1.8-3.3-3 0-.7.3-1.4.7-1.9-.1-.2-.1-.5-.1-.8 0-.6.2-1.3.6-1.8s1-.8 1.5-.8c.7-.1 1 .3 1 .7m-2.5 2.6c.1.4.4.8.9.8.3 0 .6-.2.6-.5s-.2-.7-.7-.7c-.4 0-.7.3-.8.4"/><path clip-path="url(#K)" d="m146.1 61.1c-1 0-1.7-.3-1.9-.5-.1-.3-.3-1.2-.3-1.7.1-.1.2-.1.3 0 .2.6.7 1.8 2.1 1.8 1 0 1.6-.7 1.6-1.4 0-.5-.1-1.2-1-1.7l-1.2-.8c-.6-.4-1.3-1.1-1.3-2.1 0-1.2.9-2.1 2.5-2.1.4 0 .8.1 1.2.2.2.1.3.1.4.1.1.3.2 1 .2 1.5-.1.1-.2.1-.3 0-.2-.6-.5-1.4-1.7-1.4s-1.5.8-1.5 1.4c0 .7.6 1.2 1.1 1.5l1 .6c.8.5 1.6 1.2 1.6 2.4-.2 1.3-1.2 2.2-2.8 2.2"/><path clip-path="url(#L)" d="m151.7 53.6c.9-.7 2.1-1.1 3.4-1.1.7 0 1.6.1 2.2.3.1 0 .2.1.3 0 0 .3.1 1.1.2 1.8-.1.1-.2.1-.3 0-.2-.8-.7-1.8-2.5-1.8-1.9 0-3.5 1.2-3.5 3.8s1.6 4 3.7 4c1.6 0 2.3-1 2.6-1.8.1-.1.3 0 .3.1-.1.6-.4 1.5-.6 1.7-.1 0-.3.1-.4.1-.3.1-1.2.3-2 .3-1.1 0-2.2-.2-3.1-.8-1-.7-1.8-1.8-1.8-3.4 0-1.3.6-2.5 1.5-3.2"/><path clip-path="url(#M)" d="m160.5 54.6c0-1.3 0-1.5-.8-1.6h-.3c-.1 0 0-.3 0-.3h3.1c.1 0 .1.3 0 .3h-.3c-.7.1-.8.3-.8 1.6v4.4c0 1.3 0 1.5.8 1.6h.3c.1 0 .1.3 0 .3h-3.1c-.1 0-.1-.2 0-.3h.3c.7-.1.8-.3.8-1.6z"/><path clip-path="url(#N)" d="m165.3 54.6c0-1.3 0-1.5-.8-1.6h-.2c-.1 0-.1-.3 0-.3h5.5c.1.2.1 1.1.2 1.6 0 .1-.2.1-.3 0-.2-.6-.3-1-.9-1.2-.3-.1-.7-.1-1.2-.1h-.9c-.4 0-.4 0-.4.5v2.5c0 .3 0 .3.4.3h.7c.5 0 .9 0 1.1-.1.1 0 .2-.1.3-.4l.1-.5c.1-.1.3-.1.3 0v2.5c0 .1-.3.1-.3 0l-.1-.5c0-.2-.1-.4-.4-.5-.2-.1-.5-.1-1-.1h-.7c-.4 0-.4 0-.4.3v1.7c0 .7 0 1.1.2 1.3.1.1.4.3 1.5.3 1 0 1.3 0 1.6-.2.2-.1.6-.6.9-1.2.1-.1.3 0 .3.1-.1.4-.4 1.4-.6 1.7h-6.1c-.1 0-.1-.2 0-.3h.4c.7-.1.8-.2.8-1.6z"/><path clip-path="url(#O)" d="m179.8 58.8v2.2c0 .1-.1.1-.2.1-.1-.2-.5-.6-1.6-1.9l-2.9-3.3c-.3-.4-1.2-1.4-1.4-1.7-.1.1-.1.4-.1.8v2.7c0 .6 0 2.2.2 2.6.1.1.3.2.6.2h.4c.1.1.1.2 0 .3h-2.8c-.1-.1-.1-.2 0-.3h.3c.3 0 .5-.1.5-.2.2-.4.2-2 .2-2.6v-3.6c0-.3 0-.6-.3-.9-.2-.2-.5-.3-.8-.3h-.2c-.1-.1-.1-.3 0-.3h2c.2.6 1.7 2.3 2.1 2.7l1.2 1.4c.9 1 1.5 1.7 2 2.2.1-.1.1-.3.1-.5v-2.7c0-.6 0-2.2-.2-2.6-.1-.1-.3-.2-.8-.2h-.2c-.1-.1-.1-.3 0-.3h2.8c.1.1.1.2 0 .3h-.2c-.4.1-.6.2-.7.3-.2.4-.2 2-.2 2.6z"/><path clip-path="url(#P)" d="m183.7 53.6c.9-.7 2.1-1.1 3.4-1.1.7 0 1.6.1 2.2.3.1 0 .2.1.3 0 0 .3.1 1.1.2 1.8-.1.1-.2.1-.3 0-.2-.8-.7-1.8-2.5-1.8-1.9 0-3.5 1.2-3.5 3.8s1.6 4 3.7 4c1.6 0 2.3-1 2.6-1.8.1-.1.3 0 .3.1-.1.6-.4 1.5-.6 1.7-.1 0-.3.1-.4.1-.3.1-1.2.3-2 .3-1.1 0-2.2-.2-3.1-.8-1-.7-1.8-1.8-1.8-3.4-.1-1.3.5-2.5 1.5-3.2"/><path clip-path="url(#Q)" d="m192.4 54.6c0-1.3 0-1.5-.8-1.6h-.2c-.1 0-.1-.3 0-.3h5.5c.1.2.1 1.1.2 1.6-.1.1-.2.1-.3 0-.2-.6-.3-1-.9-1.2-.3-.1-.7-.1-1.2-.1h-.9c-.4 0-.4 0-.4.5v2.5c0 .3 0 .3.4.3h.7c.5 0 .9 0 1.1-.1.1 0 .2-.1.3-.4l.1-.5c.1-.1.3-.1.3 0 0 .3-.1.8-.1 1.3 0 .4.1.9.1 1.2-.1.1-.3.1-.3 0l-.1-.5c0-.2-.1-.4-.4-.5-.2-.1-.5-.1-1-.1h-.7c-.4 0-.4 0-.4.3v1.7c0 .7 0 1.1.2 1.3.1.1.4.3 1.5.3 1 0 1.3 0 1.6-.2.2-.1.6-.6.9-1.2.1-.1.3 0 .3.1-.1.4-.4 1.4-.6 1.7h-6.1c-.1 0-.1-.2 0-.3h.4c.7-.1.8-.2.8-1.6z"/><path clip-path="url(#R)" d="m201.4 61.1c-1 0-1.7-.3-1.9-.5-.1-.3-.3-1.2-.3-1.7.1-.1.2-.1.3 0 .2.6.7 1.8 2.1 1.8 1 0 1.6-.7 1.6-1.4 0-.5-.1-1.2-1-1.7l-1.2-.8c-.6-.4-1.3-1.1-1.3-2.1 0-1.2.9-2.1 2.5-2.1.4 0 .8.1 1.2.2.2.1.3.1.4.1.1.3.2 1 .2 1.5-.1.1-.2.1-.3 0-.2-.6-.5-1.4-1.7-1.4s-1.5.8-1.5 1.4c0 .7.6 1.2 1.1 1.5l1 .6c.8.5 1.6 1.2 1.6 2.4-.1 1.3-1.1 2.2-2.8 2.2"/></g></svg>