<?xml version="1.0" encoding="utf-8"?>
<!-- Generator: Adobe Illustrator 16.0.4, SVG Export Plug-In . SVG Version: 6.00 Build 0)  -->
<!DOCTYPE svg PUBLIC "-//W3C//DTD SVG 1.1//EN" "http://www.w3.org/Graphics/SVG/1.1/DTD/svg11.dtd">
<svg version="1.1" id="Layer_1" xmlns="http://www.w3.org/2000/svg" xmlns:xlink="http://www.w3.org/1999/xlink" x="0px" y="0px"
	 width="300px" height="77.34375px" viewBox="0.133 157.451 639.839 165.111"
	 enable-background="new 0.133 157.451 639.839 165.111" xml:space="preserve">
<title>krieger.small.horizontal.blue</title>
<style>.blue{fill:#002D72;}</style>
<g>
	<path class="blue" d="M59.054,278.413c3.65-2.032,7.155-4.315,10.489-6.833v-35.264l-10.489-6.946V278.413z"/>
	<path class="blue" d="M59.054,204.961l10.489,6.974v-17.8c-3.487-0.169-7.002-0.281-10.489-0.31V204.961z"/>
	<path class="blue" d="M90.493,195.963c-3.487-0.422-6.974-0.787-10.489-1.097v23.987l10.489,7.03V195.963z"/>
	<path class="blue" d="M80.003,243.29v19.179c3.803-3.784,7.31-7.855,10.489-12.177l0,0L80.003,243.29z"/>
	<path class="blue" d="M90.493,250.292L90.493,250.292z"/>
	<path class="blue" d="M100.954,197.566v35.348l0,0c5.059-10.552,8.545-21.789,10.348-33.351h-0.365c-3.318-0.703-6.665-1.322-10.011-1.884"/>
	<polygon class="blue" points="69.542,211.936 69.542,236.316 80.003,243.29 80.003,218.881 	"/>
	<path class="blue" d="M90.493,225.883v24.38l0,0c4.03-5.438,7.533-11.248,10.461-17.35l0,0L90.493,225.883z"/>
	<path class="blue" d="M100.954,232.914L100.954,232.914L100.954,232.914z"/>
	<path class="blue" d="M36.079,237.919c3.056-0.866,5.792-2.606,7.874-5.005c-1.307-0.463-2.641-0.848-3.993-1.153
		c-1.006,2.194-2.312,4.239-3.88,6.074"/>
	<path class="blue" d="M19.459,232.914c2.112,2.353,4.854,4.051,7.902,4.893c-1.548-1.792-2.827-3.8-3.796-5.961
		C22.172,232.101,20.8,232.458,19.459,232.914"/>
	<path class="blue" d="M30.202,207.605c-1.436,1.569-2.647,3.329-3.6,5.23c1.194,0.165,2.396,0.268,3.6,0.309V207.605z"/>
	<path class="blue" d="M41,228.977c1.64,0.381,3.248,0.889,4.809,1.519c1.273-2.104,2.052-4.469,2.278-6.917h-6.102
		C41.864,225.409,41.534,227.221,41,228.977"/>
	<path class="blue" d="M27.361,206.227c-3.054,0.842-5.799,2.552-7.902,4.921c1.343,0.47,2.714,0.855,4.106,1.153
		c0.985-2.206,2.293-4.253,3.88-6.074"/>
	<path class="blue" d="M43.953,211.148c-2.087-2.375-4.824-4.085-7.874-4.921c1.568,1.835,2.875,3.879,3.88,6.074
		C41.313,212,42.647,211.615,43.953,211.148"/>
	<path class="blue" d="M41.984,220.568h6.102c-0.226-2.439-1.004-4.796-2.278-6.889c-1.565,0.61-3.172,1.108-4.809,1.49
		C41.534,216.925,41.864,218.737,41.984,220.568"/>
	<path class="blue" d="M33.21,236.569c1.438-1.578,2.649-3.347,3.6-5.259c-1.194-0.165-2.395-0.268-3.6-0.309V236.569z"/>
	<path class="blue" d="M30.202,223.578h-5.624c0.125,1.645,0.446,3.268,0.956,4.836c1.585-0.231,3.18-0.381,4.78-0.45L30.202,223.578z"/>
	<path class="blue" d="M33.21,227.993c1.601,0.045,3.197,0.186,4.781,0.421c0.523-1.565,0.844-3.19,0.956-4.836h-5.624L33.21,227.993z"/>
	<path class="blue" d="M36.838,212.835c-0.958-1.906-2.179-3.667-3.628-5.23v5.624c1.214-0.04,2.425-0.143,3.628-0.309"/>
	<path class="blue" d="M38.947,220.568c-0.112-1.646-0.433-3.271-0.956-4.836c-1.585,0.231-3.181,0.381-4.781,0.45v4.387H38.947z"/>
	<path class="blue" d="M26.602,231.311c0.96,1.897,2.17,3.657,3.6,5.23v-5.624c-1.205,0.04-2.406,0.143-3.6,0.31"/>
	<path class="blue" d="M22.412,215.169c-1.643-0.391-3.259-0.889-4.836-1.49c-1.252,2.101-2.021,4.455-2.25,6.889h6.13
		C21.554,218.737,21.875,216.923,22.412,215.169"/>
	<path class="blue" d="M30.202,216.182c-1.6-0.068-3.196-0.218-4.78-0.45c-0.51,1.568-0.831,3.192-0.957,4.836h5.625L30.202,216.182z"/>
	<path class="blue" d="M21.456,223.578h-6.13c0.229,2.444,0.998,4.807,2.25,6.917c1.572-0.625,3.189-1.132,4.836-1.519
		C21.875,227.223,21.554,225.41,21.456,223.578"/>
	<path class="blue" d="M1.856,199.534c7.649,47.44,37.457,70.724,52.276,78.879v-84.587c-17.447,0.157-34.835,2.041-51.911,5.624L1.856,199.534z
		 M31.692,202.6c10.763-0.062,19.538,8.612,19.6,19.375c0.062,10.763-8.612,19.538-19.375,19.6s-19.538-8.612-19.6-19.375
		c0-0.037,0-0.075,0-0.112c0.016-10.745,8.714-19.457,19.459-19.487"/>
	<path class="blue" d="M110.937,163.202L110.937,163.202c-35.814-7.668-72.845-7.668-108.659,0l0,0c-1.286,0.317-2.176,1.489-2.137,2.812v9.786
		c-0.062,6.115,0.249,12.229,0.928,18.307c36.599-7.688,74.395-7.688,110.993,0c0.736-6.074,1.102-12.188,1.097-18.307v-9.814
		c0.027-1.357-0.919-2.541-2.25-2.812 M98.647,187.471c-13.933-2.369-28.048-3.498-42.181-3.375l0,0
		c-14.132-0.122-28.248,1.007-42.181,3.375c-0.308,0.106-0.645-0.057-0.751-0.365c-0.062-0.18-0.034-0.38,0.076-0.535l8.971-19.685
		c0-0.197,5.877-3.065,5.877-3.065c9.353-1.539,18.939-0.767,27.924,2.25l0,0c8.985-3.018,18.572-3.79,27.924-2.25
		c0,0,5.792,2.812,5.877,3.065l8.971,19.685c0.167,0.297,0.062,0.675-0.236,0.842c-0.142,0.08-0.31,0.101-0.467,0.058"/>
	<path class="blue" d="M82.197,167.167l3.769,10.095c-9.028-1.321-18.243-0.354-26.799,2.812v0.956c10.152-0.394,23.003-0.956,33.379,1.266
		l-5.624-12.992L82.197,167.167z"/>
	<path class="blue" d="M27.08,177.263l3.769-10.095l-4.668,2.165l-5.652,12.964c10.376-2.25,23.199-1.688,33.351-1.293v-0.9
		c-8.557-3.167-17.771-4.134-26.799-2.812"/>
</g>
<g>
	<path class="blue" d="M148.309,181.424c0-8.886-0.815-9.842-5.624-10.264h-1.997c-0.429-0.62-0.358-1.458,0.169-1.997
		c4.64,0,7.368,0.225,10.714,0.225s5.934,0,9.111-0.225c0.538,0.534,0.609,1.379,0.168,1.997h-1.181
		c-4.724,0.646-4.893,1.771-4.893,10.264v29.667c0.301,5.243-0.327,10.499-1.856,15.523c-2.396,6.715-8.65,11.286-15.775,11.529
		c-0.956,0-3.431,0-3.431-1.687c0-1.688,1.181-3.684,2.812-3.684c1.013,0,2.019,0.162,2.98,0.478
		c1.085,0.339,2.21,0.528,3.347,0.562c1.394,0.029,2.665-0.796,3.206-2.081c1.828-3.768,2.081-15.748,2.081-20.078L148.309,181.424z
		"/>
	<path class="blue" d="M160.766,200.266c-0.285-12.888,9.931-23.566,22.818-23.852c0.408-0.009,0.817-0.007,1.226,0.005
		c12.251-0.665,22.721,8.729,23.386,20.98c0.04,0.73,0.043,1.461,0.011,2.191c0.281,12.717-9.8,23.253-22.516,23.535
		c-0.293,0.006-0.587,0.007-0.88,0.002C169.821,223.127,160.766,212.414,160.766,200.266 M201.457,201.671
		c0-11.248-4.921-23.143-17.8-23.143c-7.03,0-16.142,4.78-16.142,19.684c0,9.983,4.865,22.947,18.166,22.947
		c8.099,0,15.776-6.074,15.776-19.375"/>
	<path class="blue" d="M223.56,200.266c-3.234,0-3.375,0-3.375,2.165v9.505c0,7.086,0.337,8.014,4.105,8.436l1.969,0.197
		c0.394,0.281,0.253,1.491,0,1.688c-3.656-0.141-5.934-0.197-8.437-0.197s-5.202,0.141-7.817,0.197c-0.43-0.48-0.43-1.207,0-1.688
		l1.153-0.197c3.768-0.675,3.909-1.35,3.909-8.436v-24.296c0-7.086-0.478-8.239-3.993-8.436h-1.743
		c-0.422-0.281-0.281-1.491,0-1.688c3.29,0,5.624,0.197,8.436,0.197s4.921,0,7.817-0.197c0.422,0.197,0.562,1.406,0,1.688h-1.265
		c-3.909,0.422-4.049,1.434-4.049,8.436v7.761c0,2.081,0,2.166,3.375,2.166h19.263c3.234,0,3.374,0,3.374-2.166v-7.761
		c0-7.086-0.141-8.099-4.105-8.436h-1.293c-0.406-0.489-0.406-1.198,0-1.688c3.093,0,5.399,0.197,8.155,0.197
		s5.118-0.281,7.93-0.394c0.422,0.197,0.562,1.406,0,1.688h-1.406c-3.909,0.421-4.05,1.434-4.05,8.436v24.296
		c0,7.086,0,7.958,4.05,8.436l1.603,0.197c0.422,0.281,0.281,1.491,0,1.688c-3.262-0.141-5.624-0.197-8.183-0.197
		s-5.202,0-8.155,0.197c-0.422-0.197-0.535-1.293,0-1.688l1.293-0.197c4.105-0.675,4.105-1.35,4.105-8.436v-9.308
		c0-2.053-0.141-2.165-3.375-2.165H223.56z"/>
	<path class="blue" d="M303.535,210.586c0,2.024,0,10.039,0.197,11.811c-0.22,0.504-0.748,0.802-1.293,0.731
		c-0.787-1.153-2.812-3.515-8.633-10.18l-15.664-17.829c-1.799-2.081-6.411-7.621-7.817-9.111l0,0
		c-0.292,1.443-0.405,2.916-0.337,4.387v14.707c0,3.178,0,11.952,1.209,14.061c0.422,0.759,1.772,1.153,3.459,1.293l2.081,0.197
		c0.457,0.47,0.457,1.218,0,1.688c-3.037-0.141-5.399-0.197-7.874-0.197s-4.668,0-7.03,0.197c-0.429-0.48-0.429-1.207,0-1.688
		l1.828-0.197c1.546-0.197,2.643-0.619,2.981-1.35c0.778-4.597,1.07-9.262,0.872-13.92v-19.572c0.228-1.76-0.316-3.534-1.49-4.865
		c-1.195-0.963-2.659-1.533-4.19-1.631h-1.153c-0.394-0.422-0.394-1.434,0-1.688c2.812,0.197,6.412,0.197,7.621,0.197
		c0.914-0.055,1.825-0.158,2.728-0.31c1.35,3.431,9.308,12.345,11.529,14.848l6.552,7.34c4.64,5.202,7.958,8.97,11.249,12.232l0,0
		c0.266-0.912,0.352-1.867,0.253-2.812v-14.482c0-3.178,0-11.951-1.35-14.061c-0.394-0.59-1.49-1.012-4.162-1.35h-1.153
		c-0.478-0.422-0.422-1.49,0-1.687c3.121,0,5.427,0.197,7.986,0.197c2.559,0,4.64,0,6.946-0.197c0.457,0.469,0.457,1.218,0,1.687
		h-0.957c-2.165,0.337-3.515,0.9-3.768,1.434c-1.153,2.418-1.012,10.798-1.012,13.892L303.535,210.586z"/>
	<path class="blue" d="M321.363,223.127c-3.665,0.112-7.294-0.751-10.517-2.502c-1.095-3.036-1.711-6.224-1.828-9.449
		c0.337-0.478,1.35-0.59,1.603-0.197c1.013,3.431,3.796,10.067,11.615,10.067c4.201,0.436,7.961-2.618,8.396-6.819
		c0.032-0.313,0.045-0.627,0.039-0.942c0.155-3.983-2.049-7.686-5.624-9.448l-6.215-4.19c-4.301-2.395-7.088-6.813-7.396-11.727
		c0-6.412,5.006-11.614,13.78-11.614c2.119,0.041,4.225,0.343,6.271,0.9c0.769,0.228,1.562,0.36,2.362,0.394
		c0.795,2.675,1.201,5.449,1.209,8.239c-0.445,0.456-1.148,0.538-1.688,0.197c-0.621-4.531-4.599-7.838-9.167-7.621
		c-6.608,0-8.042,4.387-8.042,7.48c0.376,3.529,2.485,6.64,5.624,8.296l5.4,3.375c4.273,2.643,8.436,6.552,8.436,12.963
		c0,7.424-5.624,12.486-14.369,12.486"/>
	<path class="blue" d="M375.806,196.356c-3.853,0-3.993,0.169-3.993,2.559v11.249c0,8.436,0.394,9.533,4.865,10.011l2.334,0.225
		c0.429,0.62,0.357,1.457-0.169,1.997c-4.331-0.169-7.03-0.225-10.151-0.225s-6.188,0.141-9.28,0.225
		c-0.506-0.225-0.646-1.519-0.169-1.997l1.35-0.225c4.472-0.815,4.641-1.603,4.641-10.011v-28.908c0-8.437-0.562-9.758-4.725-10.095
		h-2.081c-0.429-0.62-0.358-1.458,0.169-1.997c3.908,0,6.637,0.225,10.096,0.225s5.82,0,9.279-0.225
		c0.519,0.546,0.577,1.383,0.141,1.997h-1.519c-4.64,0.506-4.78,1.687-4.78,10.095v9.195c0,2.475,0,2.559,3.993,2.559h22.862
		c3.853,0,4.021,0,4.021-2.559v-9.195c0-8.437-0.169-9.589-4.894-10.095h-1.519c-0.429-0.62-0.357-1.458,0.169-1.997
		c3.655,0,6.384,0.225,9.674,0.225s5.849,0,9.448-0.225c0.476,0.58,0.476,1.416,0,1.997h-1.659
		c-4.64,0.506-4.809,1.687-4.809,10.095v28.795c0,8.437,0.169,9.449,4.809,10.011l1.912,0.225c0.429,0.62,0.358,1.457-0.169,1.997
		c-3.824-0.169-6.552-0.225-9.673-0.225c-3.122,0-6.159,0-9.674,0.225c-0.538-0.534-0.609-1.38-0.169-1.997l1.519-0.225
		c4.894-0.815,4.894-1.603,4.894-10.011v-11.248c0-2.39-0.169-2.559-4.021-2.559L375.806,196.356z"/>
	<path class="blue" d="M415.456,200.266c-0.285-12.888,9.931-23.566,22.818-23.851c0.398-0.009,0.798-0.008,1.196,0.004
		c12.251-0.68,22.732,8.7,23.413,20.95c0.041,0.74,0.045,1.481,0.012,2.221c0.281,12.717-9.799,23.253-22.516,23.535
		c-0.303,0.007-0.606,0.007-0.909,0.002C424.511,223.127,415.456,212.414,415.456,200.266 M456.146,201.671
		c0-11.248-4.921-23.143-17.828-23.143c-7.002,0-16.113,4.78-16.113,19.684c0,9.983,4.864,22.947,18.166,22.947
		c8.099,0,15.775-6.074,15.775-19.375"/>
	<path class="blue" d="M475.1,211.936c0,7.086,0.141,7.958,4.472,8.436l1.828,0.197c0.355,0.526,0.297,1.228-0.141,1.688
		c-3.853-0.141-6.074-0.197-8.774-0.197c-2.699,0-5.258,0-8.239,0.197c-0.438-0.459-0.496-1.162-0.141-1.688l1.435-0.197
		c3.908-0.534,4.049-1.35,4.049-8.436v-24.915c0-5.624-0.141-6.89-3.178-7.227l-2.446-0.309c-0.466-0.434-0.491-1.164-0.058-1.63
		c0.019-0.02,0.038-0.039,0.058-0.058c4.437-0.46,8.898-0.639,13.357-0.534c4.499-0.286,8.988,0.688,12.964,2.812
		c3.462,2.184,5.514,6.032,5.399,10.124c0.126,4.608-2.538,8.837-6.749,10.714c-2.923,1.332-6.097,2.022-9.309,2.025
		c-0.478-0.197-0.478-1.209,0-1.35c7.284-1.35,9.899-5.455,9.899-11.248c0.534-5.456-3.455-10.313-8.912-10.848
		c-0.617-0.061-1.24-0.063-1.858-0.007c-3.571,0-3.656,0.253-3.656,2.418V211.936z"/>
	<path class="blue" d="M503.192,187.639c0-7.086-0.141-8.183-4.049-8.436h-1.688c-0.394-0.281-0.253-1.491,0-1.688
		c3.29,0,5.455,0.197,8.437,0.197c2.98,0,4.921,0,7.846-0.197c0.394,0.197,0.534,1.406,0,1.688h-1.266
		c-3.909,0.422-4.05,1.434-4.05,8.436v7.761c0,1.266,0.141,2.559,0.872,2.559c0.683-0.069,1.334-0.322,1.884-0.731
		c0.956-0.815,2.812-2.587,3.459-3.262l7.283-7.199c1.266-1.237,4.584-4.668,5.259-5.624c0.269-0.297,0.436-0.671,0.478-1.069
		c0-0.281-0.281-0.478-1.152-0.675l-1.828-0.394c-0.432-0.447-0.42-1.159,0.026-1.591c0.036-0.035,0.074-0.067,0.114-0.097
		c2.362,0,5.062,0.197,7.424,0.197s4.668,0,6.665-0.197c0.442,0.475,0.442,1.212,0,1.688c-2.198,0.188-4.334,0.83-6.271,1.884
		c-3.377,2.317-6.539,4.934-9.448,7.818l-6.074,5.624c-0.928,0.956-1.547,1.546-1.547,2.109s0.394,1.012,1.294,2.081
		c6.411,7.339,11.586,13.442,16.872,18.953c1.277,1.566,3.112,2.574,5.118,2.812l1.321,0.197c0.429,0.492,0.377,1.238-0.115,1.666
		c-0.009,0.007-0.017,0.014-0.025,0.021c-1.771-0.141-3.599-0.197-6.776-0.197c-2.812,0-5.146,0-8.239,0.197
		c-0.479-0.141-0.675-1.293-0.281-1.687l1.574-0.281c0.928,0,1.604-0.337,1.604-0.675c0-0.338-0.479-0.928-0.929-1.547
		c-1.293-1.603-3.037-3.431-5.624-6.327l-5.399-6.074c-3.824-4.331-4.921-5.624-6.523-5.624c-1.013,0-1.153,0.872-1.153,3.234v8.717
		c0,7.086,0.141,8.015,3.909,8.437l1.827,0.197c0.395,0.281,0.254,1.49,0,1.687c-3.317-0.141-5.624-0.197-8.239-0.197
		s-5.062,0-7.817,0.197c-0.422-0.197-0.534-1.209-0.141-1.687l1.35-0.197c3.571-0.534,3.712-1.35,3.712-8.437L503.192,187.639z"/>
	<path class="blue" d="M549.423,187.92c0-7.171,0-8.436-4.105-8.661h-1.688c-0.366-0.522-0.308-1.233,0.141-1.688
		c3.375,0,5.624,0.197,8.437,0.197s5.006,0,8.437-0.197c0.394,0.197,0.534,1.406,0,1.688h-1.688
		c-3.769,0.225-3.909,1.35-3.909,8.661v24.015c0,7.143,0.141,8.099,4.134,8.577l1.688,0.197c0.394,0.281,0.253,1.491,0,1.688
		c-3.374-0.141-5.624-0.197-8.437-0.197c-2.812,0-4.864,0-8.239,0.197c-0.438-0.459-0.496-1.162-0.141-1.688l1.435-0.197
		c3.937-0.619,3.937-1.659,3.937-8.717V187.92z"/>
	<path class="blue" d="M607.886,210.586c0,2.024,0,10.039,0.226,11.811c-0.228,0.498-0.75,0.793-1.294,0.731
		c-0.815-1.153-2.812-3.515-8.633-10.18l-15.663-17.829c-1.828-2.081-6.412-7.621-7.818-9.111h-0.141
		c-0.306,1.441-0.419,2.916-0.337,4.387v14.707c0,3.178,0,11.952,1.209,14.061c0.394,0.759,1.743,1.153,3.431,1.293l2.109,0.197
		c0.405,0.512,0.344,1.25-0.141,1.688c-3.037-0.141-5.399-0.197-7.902-0.197c-2.502,0-4.64,0-7.002,0.197
		c-0.484-0.438-0.546-1.176-0.141-1.688l1.828-0.197c1.547-0.197,2.615-0.619,2.953-1.35c0.791-4.595,1.083-9.262,0.871-13.92
		v-19.572c0.228-1.756-0.304-3.525-1.462-4.865c-1.197-0.959-2.66-1.528-4.19-1.631h-1.152c-0.395-0.422-0.395-1.434,0.141-1.688
		c2.812,0.197,6.411,0.197,7.62,0.197c1.034-0.003,2.067-0.069,3.094-0.197c1.378,3.431,9.336,12.345,11.558,14.848l6.552,7.339
		c4.64,5.202,7.958,8.971,11.248,12.232l0,0c0.296-0.906,0.392-1.865,0.281-2.812v-14.595c0-3.178,0-11.951-1.35-14.061
		c-0.394-0.59-1.49-1.012-4.189-1.35h-1.153c-0.45-0.422-0.394-1.49,0-1.687c3.121,0,5.399,0.197,7.958,0.197
		c2.56,0,4.668,0,6.974-0.197c0.467,0.457,0.474,1.204,0.018,1.67c-0.006,0.006-0.012,0.012-0.018,0.017h-0.928
		c-2.165,0.337-3.515,0.9-3.796,1.434c-1.125,2.418-1.013,10.798-1.013,13.892L607.886,210.586z"/>
	<path class="blue" d="M625.631,223.127c-3.674,0.105-7.311-0.758-10.546-2.502c-1.095-3.036-1.712-6.224-1.828-9.449
		c0.366-0.478,1.351-0.59,1.632-0.197c1.012,3.431,3.768,10.067,11.613,10.067c4.219,0.419,7.979-2.66,8.399-6.879
		c0.029-0.293,0.042-0.587,0.037-0.882c0.141-3.98-2.059-7.675-5.624-9.448l-6.412-4.19c-4.236-2.431-6.948-6.848-7.198-11.727
		c0-6.412,4.977-11.614,13.778-11.614c2.12,0.042,4.226,0.345,6.271,0.9c0.768,0.23,1.562,0.362,2.362,0.394
		c0.819,2.709,1.255,5.521,1.293,8.352c-0.281,0.394-1.35,0.59-1.687,0.197c-0.622-4.542-4.617-7.853-9.196-7.621
		c-6.608,0-8.014,4.387-8.014,7.48c0.366,3.533,2.478,6.647,5.624,8.295l5.398,3.375c4.247,2.644,8.437,6.552,8.437,12.964
		c0,7.424-5.624,12.485-14.369,12.485"/>
</g>
<g>
	<path class="blue" d="M230.646,257.463c0-3.656,0-4.218-2.109-4.415h-0.872c-0.197,0,0-0.759,0-0.872c1.715,0,2.812,0,4.387,0s2.559,0,4.049,0
		c0.213,0.252,0.213,0.621,0,0.872h-0.675c-2.024,0.226-2.081,0.759-2.081,4.415v3.993c0,0.675,0,1.351,0.45,1.351
		c0.349-0.043,0.679-0.18,0.956-0.395c0.506-0.422,1.406-1.321,1.8-1.688l3.768-3.711c0.647-0.647,2.362-2.419,2.812-2.812
		c0.146-0.153,0.235-0.352,0.253-0.562c0-0.141,0-0.253-0.591-0.365l-0.928-0.197c-0.241-0.196-0.277-0.551-0.081-0.791
		c0.024-0.029,0.051-0.057,0.081-0.08c1.209,0,2.615,0,3.853,0s2.39,0,3.431,0c0.225,0.246,0.225,0.624,0,0.871
		c-1.143,0.103-2.253,0.438-3.262,0.984c-1.739,1.201-3.367,2.557-4.865,4.049l-3.149,2.812c-0.478,0.479-0.816,0.815-0.816,1.097
		s0.225,0.507,0.675,1.068c3.318,3.796,6.018,6.946,8.717,9.814c0.727,0.807,1.731,1.309,2.812,1.405h0.928
		c0.239,0.242,0.239,0.631,0,0.873c-0.928,0-2.278,0-3.909,0c-1.631,0-2.812,0-4.274,0c-0.225,0-0.338-0.647,0-0.873l0.815-0.141
		c0.478,0,0.843-0.168,0.843-0.337s-0.253-0.506-0.506-0.815c-0.647-0.815-1.547-1.771-2.812-3.262l-2.812-3.15
		c-1.997-2.221-2.559-2.812-3.375-2.812c-0.816,0-0.591,0.45-0.591,1.659v4.5c0,3.684,0,4.161,2.025,4.357h0.928
		c0.225,0,0.141,0.76,0,0.873c-1.715,0-2.812,0-4.274,0c-1.462,0-2.615,0-4.049,0c-0.213-0.252-0.213-0.621,0-0.873h0.703
		c1.856-0.252,1.912-0.674,1.912-4.357L230.646,257.463z"/>
	<path class="blue" d="M255.927,257.491c0-3.318,0-3.909-1.546-4.077h-1.097c-0.241-0.197-0.277-0.551-0.081-0.792
		c0.024-0.029,0.051-0.056,0.081-0.08c1.94-0.169,4.358-0.281,7.761-0.281c2.005-0.13,4.012,0.228,5.849,1.04
		c1.812,0.942,2.911,2.854,2.812,4.894c-0.171,2.576-1.865,4.801-4.302,5.651c-0.169,0.197,0,0.562,0.197,0.844
		c1.843,3.436,4.205,6.565,7.002,9.28c0.688,0.565,1.531,0.909,2.418,0.984c0.168,0,0.197,0.337,0,0.478
		c-0.504,0.134-1.026,0.191-1.547,0.17c-2.812,0-4.724-0.873-7.199-4.388c-0.928-1.294-2.362-3.712-3.431-5.286
		c-0.539-0.818-1.506-1.248-2.475-1.098c-1.575,0-1.631,0-1.631,0.76v4.387c0,3.684,0,4.105,2.081,4.359h0.731
		c0.212,0.251,0.212,0.619,0,0.871c-1.575,0-2.812,0-4.162,0s-2.812,0-4.359,0c-0.225,0-0.281-0.619,0-0.871h0.872
		c2.024-0.226,2.109-0.676,2.109-4.359L255.927,257.491z M258.739,262.469c-0.067,0.381-0.067,0.771,0,1.152
		c0,0,0.647,0.197,2.418,0.197c1.271,0.107,2.54-0.22,3.6-0.928c1.256-1.07,1.907-2.689,1.744-4.331
		c0.137-2.839-2.054-5.251-4.893-5.388c-0.244-0.012-0.489-0.006-0.732,0.017c-2.165,0-2.25,0-2.25,1.125L258.739,262.469z"/>
	<path class="blue" d="M280.167,257.52c0-3.684,0-4.274-2.137-4.472h-0.872c-0.192-0.259-0.192-0.612,0-0.872c1.771,0,2.812,0,4.415,0
		c1.603,0,2.587,0,4.331,0c0.197,0,0.281,0.731,0,0.872h-0.872c-2.053,0.197-2.137,0.788-2.137,4.472v12.43
		c0,3.684,0,4.189,2.137,4.414h0.872c0.225,0,0,0.76,0,0.872c-1.744,0-2.812,0-4.331,0c-1.519,0-2.644,0-4.415,0
		c-0.202-0.255-0.202-0.616,0-0.872h0.872c2.053-0.225,2.137-0.73,2.137-4.414V257.52z"/>
	<path class="blue" d="M293.693,257.463c0-3.627,0-4.162-2.137-4.415h-0.562c-0.213-0.251-0.213-0.62,0-0.872c1.49,0,2.812,0,4.105,0h6.552
		c1.573,0.086,3.15,0.086,4.724,0c0.274,1.535,0.462,3.084,0.562,4.641c0,0.197-0.703,0.281-0.872,0
		c-0.535-1.631-0.844-2.812-2.672-3.291c-1.112-0.203-2.245-0.278-3.375-0.225h-2.502c-1.041,0-1.041,0-1.041,1.406v6.975
		c0,0.984,0,0.984,1.125,0.984h2.024c0.999,0.041,2-0.034,2.981-0.226c0.422,0,0.646-0.337,0.844-1.21l0.281-1.434
		c0.251-0.242,0.649-0.242,0.9,0c0,0.844,0,2.193,0,3.516c0,1.321,0,2.587,0,3.374c-0.264,0.206-0.635,0.206-0.9,0l-0.337-1.378
		c-0.141-0.619-0.365-1.152-1.068-1.322c-0.927-0.168-1.872-0.225-2.812-0.168h-2.025c-1.041,0-1.125,0-1.125,0.956v4.894
		c0,1.855,0,3.037,0.646,3.627c0.647,0.591,1.153,0.815,4.218,0.815c1.512,0.166,3.041-0.017,4.471-0.534
		c1.095-0.898,1.946-2.06,2.475-3.375c0.311-0.168,0.699-0.055,0.872,0.254c-0.394,1.652-0.92,3.27-1.575,4.836
		c-3.149,0-6.243,0-9.336,0h-3.149c-1.491,0-2.812,0-4.752,0c-0.213-0.251-0.213-0.619,0-0.871h1.153
		c1.997-0.169,2.165-0.675,2.165-4.359L293.693,257.463z"/>
	<path class="blue" d="M333.034,271.691c0,1.406,0.196,2.223,0.843,2.475c0.111,0.119,0.111,0.304,0,0.422c-0.571,0.041-1.137,0.145-1.687,0.311
		c-2.04,0.535-4.135,0.836-6.243,0.899c-3.926,0.197-7.766-1.19-10.657-3.853c-2.087-2.107-3.242-4.965-3.206-7.93
		c-0.041-3.057,1.086-6.014,3.149-8.268c2.936-2.87,6.956-4.354,11.052-4.078c1.485,0.012,2.965,0.181,4.415,0.506
		c0.714,0.221,1.448,0.362,2.193,0.422c0.072,1.697,0.251,3.388,0.534,5.062c0,0.253-0.731,0.309-0.956,0
		c-0.655-3.357-3.849-5.594-7.228-5.062c-5.102-0.283-9.467,3.623-9.75,8.725c-0.024,0.438-0.018,0.878,0.021,1.314
		c0,6.721,3.459,11.98,10.461,11.98c2.165,0,3.459-0.451,3.853-1.041c0.279-0.626,0.396-1.312,0.338-1.996v-1.406
		c0-2.812,0-3.121-2.278-3.375l-1.519-0.168c-0.281-0.141-0.253-0.788,0-0.872c1.013,0,2.812,0,4.978,0c1.378,0,2.56,0,3.712,0
		c0.24,0.241,0.24,0.63,0,0.872h-0.562c-1.462,0.168-1.49,1.152-1.49,2.812L333.034,271.691z"/>
	<path class="blue" d="M341.779,257.463c0-3.627,0-4.162-2.137-4.415h-0.562c-0.213-0.251-0.213-0.62,0-0.872c1.49,0,2.812,0,4.105,0h6.58
		c1.574,0.086,3.15,0.086,4.725,0c0.273,1.535,0.462,3.084,0.562,4.641c-0.141,0.197-0.703,0.281-0.872,0
		c-0.534-1.631-0.844-2.812-2.812-3.291c-1.113-0.203-2.245-0.278-3.375-0.225h-2.503c-1.068,0-1.068,0-1.068,1.406v6.975
		c0,0.984,0,0.984,1.153,0.984h2.024c0.999,0.041,1.999-0.034,2.981-0.226c0.421,0,0.646-0.337,0.843-1.21l0.281-1.434
		c0.251-0.242,0.649-0.242,0.899,0c0,0.844,0,2.193,0,3.516c0,1.321,0,2.587,0,3.374c-0.264,0.206-0.635,0.206-0.899,0l-0.337-1.378
		c0-0.619-0.366-1.152-1.068-1.322c-0.928-0.168-1.872-0.225-2.812-0.168h-2.025c-1.04,0-1.152,0-1.152,0.956v4.894
		c0,1.855,0,3.037,0.675,3.627c0.675,0.591,1.153,0.815,4.218,0.815c1.512,0.166,3.041-0.017,4.472-0.534
		c1.095-0.898,1.946-2.06,2.475-3.375c0.311-0.168,0.698-0.055,0.872,0.254c-0.395,1.652-0.921,3.27-1.575,4.836
		c-3.149,0-6.243,0-9.336,0h-3.149c-1.49,0-2.812,0-4.753,0c-0.213-0.251-0.213-0.619,0-0.871h1.153
		c1.996-0.169,2.165-0.675,2.165-4.359L341.779,257.463z"/>
	<path class="blue" d="M363.826,257.491c0-3.318,0-3.909-1.547-4.077h-1.097c-0.24-0.197-0.276-0.551-0.08-0.792
		c0.024-0.029,0.051-0.056,0.08-0.08c1.94-0.169,4.358-0.281,7.762-0.281c2.005-0.13,4.012,0.228,5.849,1.04
		c1.812,0.942,2.91,2.854,2.812,4.894c-0.153,2.548-1.797,4.765-4.189,5.651c-0.197,0.197,0,0.562,0.168,0.844
		c1.844,3.436,4.205,6.565,7.002,9.28c0.688,0.565,1.531,0.909,2.418,0.984c0.17,0,0.197,0.337,0,0.478
		c-0.504,0.134-1.025,0.191-1.546,0.17c-2.952,0-4.725-0.873-7.199-4.388c-0.928-1.294-2.362-3.712-3.431-5.286
		c-0.539-0.818-1.506-1.248-2.475-1.098c-1.574,0-1.631,0-1.631,0.76v4.387c0,3.684,0,4.105,2.081,4.359h0.731
		c0.225,0.246,0.225,0.625,0,0.871c-1.547,0-2.812,0-4.135,0c-1.321,0-2.812,0-4.358,0c-0.202-0.256-0.202-0.616,0-0.871h0.872
		c2.024-0.226,2.109-0.676,2.109-4.359L363.826,257.491z M366.639,262.469c-0.068,0.381-0.068,0.771,0,1.152
		c0,0,0.646,0.197,2.418,0.197c1.271,0.107,2.539-0.22,3.6-0.928c1.256-1.07,1.907-2.689,1.743-4.331
		c0.138-2.839-2.054-5.251-4.892-5.388c-0.244-0.012-0.489-0.006-0.732,0.017c-2.165,0-2.25,0-2.25,1.125L366.639,262.469z"/>
	<path class="blue" d="M401.93,275.798c-1.9,0.052-3.78-0.395-5.455-1.294c-0.568-1.561-0.881-3.203-0.928-4.865c0.168-0.252,0.702-0.309,0.843,0
		c0.526,2.927,3.02,5.092,5.99,5.203c2.179,0.218,4.122-1.372,4.34-3.551c0.016-0.156,0.021-0.313,0.019-0.471
		c0.095-2.031-1.004-3.933-2.812-4.865l-3.318-2.165c-2.192-1.24-3.61-3.504-3.769-6.018c0-3.318,2.587-5.989,7.143-5.989
		c1.093,0.014,2.18,0.164,3.234,0.449c0.392,0.121,0.799,0.188,1.209,0.197c0.413,1.387,0.631,2.826,0.646,4.273
		c0,0.197-0.703,0.311-0.871,0c-0.318-2.353-2.381-4.073-4.753-3.965c-1.999-0.284-3.85,1.105-4.135,3.104
		c-0.036,0.258-0.046,0.519-0.027,0.777c0.178,1.867,1.274,3.523,2.925,4.415l2.812,1.743c2.554,1.277,4.212,3.84,4.33,6.693
		c-0.048,3.634-3.032,6.541-6.666,6.493c-0.253-0.003-0.506-0.021-0.758-0.054"/>
	<path class="blue" d="M418.774,254.623c2.739-1.96,6.055-2.949,9.42-2.812c2.08,0.027,4.148,0.311,6.159,0.844
		c0.319,0.095,0.65,0.142,0.983,0.141c0,0.787,0.197,2.98,0.479,5.118c-0.266,0.233-0.663,0.233-0.928,0
		c-0.642-3.344-3.804-5.588-7.171-5.09c-5.315,0-9.871,3.402-9.871,10.602c0,7.198,4.641,11.248,10.377,11.248
		c3.268,0.125,6.229-1.91,7.283-5.005c0.268-0.197,0.633-0.197,0.9,0c-0.232,1.688-0.797,3.312-1.659,4.779
		c-0.421,0.093-0.835,0.215-1.237,0.366c-1.829,0.522-3.723,0.788-5.624,0.788c-3.057,0.113-6.076-0.701-8.661-2.335
		c-3.062-2.149-4.853-5.681-4.781-9.421c-0.047-3.602,1.585-7.021,4.415-9.251"/>
	<path class="blue" d="M447.907,263.986c-1.659,0-1.743,0-1.743,1.098v4.921c0,3.684,0.196,4.161,2.137,4.358h1.013
		c0.213,0.252,0.213,0.621,0,0.872c-1.885,0-3.065,0-4.415,0s-2.812,0-4.05,0c-0.213-0.251-0.213-0.62,0-0.872h0.591
		c1.94-0.337,2.024-0.675,2.024-4.358v-12.542c0-3.656-0.253-4.274-2.081-4.415h-0.899c-0.213-0.251-0.213-0.62,0-0.872
		c1.688,0,2.812,0,4.387,0s2.531,0,4.05,0c0.196,0,0.281,0.731,0,0.872h-0.647c-2.024,0.226-2.108,0.759-2.108,4.415v3.993
		c0,1.097,0,1.125,1.743,1.125h9.982c1.688,0,1.744,0,1.744-1.125v-3.993c0-3.656,0-4.189-2.138-4.415h-0.646
		c-0.192-0.259-0.192-0.612,0-0.872c1.603,0,2.812,0,4.218,0c1.406,0,2.56,0,4.134,0c0.197,0,0.281,0.731,0,0.872h-0.73
		c-2.025,0.226-2.081,0.759-2.081,4.415v12.542c0,3.684,0,4.134,2.081,4.358h0.844c0.225,0,0.14,0.76,0,0.872
		c-1.688,0-2.812,0-4.247,0c-1.434,0-2.671,0-4.218,0c-0.202-0.255-0.202-0.616,0-0.872h0.646c2.138-0.337,2.138-0.675,2.138-4.358
		v-4.921c0-1.041,0-1.098-1.744-1.098H447.907z"/>
	<path class="blue" d="M469.926,263.986c-0.143-6.66,5.142-12.176,11.803-12.318c0.199-0.004,0.399-0.004,0.599,0.002
		c6.326-0.363,11.749,4.471,12.111,10.797c0.022,0.385,0.025,0.77,0.009,1.154c0.156,6.568-5.041,12.02-11.608,12.176
		c-0.171,0.004-0.341,0.004-0.512,0.001c-6.466,0.373-12.01-4.565-12.383-11.032C469.93,264.507,469.924,264.247,469.926,263.986
		 M490.96,264.719c0-5.766-2.559-11.98-9.224-11.98c-3.627,0-8.437,2.475-8.437,10.124c0,5.174,2.503,11.866,9.364,11.866
		c4.19,0,8.184-3.148,8.184-10.01"/>
	<path class="blue" d="M499.368,263.986c-0.127-6.676,5.183-12.191,11.86-12.318c0.189-0.004,0.379-0.003,0.569,0.002
		c6.326-0.363,11.748,4.471,12.111,10.797c0.022,0.385,0.025,0.77,0.009,1.154c0.141,6.584-5.083,12.035-11.666,12.176
		c-0.151,0.003-0.303,0.004-0.454,0.001c-6.481,0.372-12.038-4.579-12.41-11.06C499.373,264.488,499.366,264.237,499.368,263.986
		 M520.402,264.719c0-5.766-2.53-11.98-9.195-11.98c-3.628,0-8.437,2.475-8.437,10.124c0,5.174,2.531,11.866,9.393,11.866
		c4.19,0,8.155-3.148,8.155-10.01"/>
	<path class="blue" d="M531.426,257.463c0-3.656,0-4.218-2.277-4.415h-0.872c-0.213-0.251-0.213-0.62,0-0.872c1.94,0,3.149,0,4.527,0
		s2.56,0,4.303,0c0.196,0,0.281,0.731,0,0.872h-0.844c-2.053,0.197-2.109,0.759-2.109,4.415v12.008c0,2.221,0,3.121,0.731,3.768
		c0.731,0.647,1.04,0.816,3.796,0.816s3.712-0.141,4.247-0.45c1.077-0.914,1.876-2.112,2.306-3.459c0.225-0.169,0.871,0,0.871,0.226
		c-0.343,1.66-0.832,3.289-1.462,4.864c-1.771,0-5.09,0-8.689,0h-3.205c-1.463,0-2.588,0-4.528,0c-0.213-0.251-0.213-0.62,0-0.872
		h1.069c2.024-0.197,2.08-0.675,2.08-4.358L531.426,257.463z"/>
	<path class="blue" d="M226.962,303.355c-0.312,2.983-1.631,5.771-3.74,7.902c-1.237,1.497-3.064,2.38-5.006,2.419
		c-2.221,0-3.684-1.659-3.487-4.641c0.346-2.96,1.684-5.716,3.796-7.817c1.238-1.382,2.983-2.203,4.837-2.277
		c2.475,0,3.684,1.855,3.543,4.414 M220.551,301.669c-1.83,2.592-3.024,5.578-3.487,8.718c0,1.237,0.422,2.249,1.434,2.249
		c1.013,0,1.659-0.337,2.812-1.828c1.671-2.55,2.783-5.425,3.262-8.436c0-1.069-0.197-2.306-1.406-2.306
		c-0.703,0-1.546,0.337-2.559,1.687"/>
	<path class="blue" d="M237.086,300.74c-0.225,0.592-0.506,1.688-0.9,3.234c-1.068,3.909-1.997,7.255-3.121,11.08
		c-0.487,2.067-1.45,3.994-2.812,5.624c-1.122,1.115-2.611,1.784-4.19,1.884c-1.884,0-2.531-1.181-2.531-1.716
		c0.024-0.613,0.311-1.187,0.788-1.574c0.233-0.204,0.582-0.204,0.815,0c0.671,0.791,1.614,1.302,2.643,1.435
		c0.703,0,1.435-0.226,2.222-2.812c1.603-5.624,2.812-11.501,4.5-17.182h-2.84c-0.292-0.402-0.203-0.965,0.199-1.258
		c0.018-0.012,0.036-0.024,0.054-0.036h3.009c0.664-3.065,1.999-5.946,3.909-8.437c1.331-1.766,3.412-2.807,5.624-2.812
		c1.411-0.131,2.664,0.897,2.812,2.306c0,0.928-0.956,1.996-1.519,1.996s-0.45-0.309-0.478-0.562c0-1.913-1.068-2.56-1.94-2.56
		c-0.872,0-1.715,0.703-2.531,1.912c-1.636,2.504-2.826,5.273-3.515,8.184h4.359c0.258,0.451,0.108,1.025-0.337,1.293H237.086z"/>
	<path class="blue" d="M265.404,305.071c-0.253-0.759-0.394-0.843-1.435-0.843h-5.287c-0.844,0-1.068,0-1.322,0.814l-1.209,3.797
		c-0.366,0.903-0.621,1.848-0.759,2.812c0,0.394,0.169,0.619,1.012,0.675h1.153c0.241,0.221,0.257,0.594,0.037,0.835
		c-0.012,0.013-0.024,0.025-0.037,0.037c-0.9,0-1.997,0-3.628,0c-1.153,0-2.418,0-3.346,0c-0.197,0-0.281-0.703,0-0.872h1.125
		c0.993-0.049,1.843-0.729,2.109-1.687c0.619-1.604,1.603-3.881,3.065-7.79l3.571-9.42c0.393-0.766,0.595-1.615,0.591-2.475
		c0.714-0.26,1.339-0.719,1.8-1.322c0.228-0.029,0.447,0.098,0.534,0.31c0.45,1.547,1.012,3.149,1.519,4.668l4.78,14.061
		c1.013,3.009,1.462,3.515,2.981,3.684h0.928c0.225,0.247,0.225,0.625,0,0.872c-1.435,0-2.644,0-4.218,0s-3.009,0-3.993,0
		c-0.241-0.22-0.257-0.594-0.038-0.834c0.012-0.014,0.024-0.026,0.038-0.038h1.012c0.731,0,1.209-0.281,1.209-0.618
		c-0.065-0.637-0.216-1.261-0.45-1.856L265.404,305.071z M258.486,301.979c-0.281,0.814-0.253,0.844,0.731,0.844h4.303
		c1.012,0,1.068,0,0.759-1.098l-1.884-5.623c-0.231-0.746-0.503-1.479-0.815-2.193l0,0c-0.317,0.668-0.599,1.354-0.844,2.053
		L258.486,301.979z"/>
	<path class="blue" d="M279.126,295.426c0-3.318,0-3.908-1.519-4.077l-1.125-0.141c-0.241-0.196-0.276-0.551-0.08-0.792
		c0.024-0.029,0.051-0.056,0.08-0.08c1.969-0.168,4.359-0.281,7.79-0.281c1.996-0.131,3.994,0.227,5.821,1.041
		c1.812,0.941,2.91,2.853,2.812,4.893c-0.114,2.654-1.845,4.965-4.359,5.821c-0.168,0.196,0,0.562,0.169,0.843
		c1.843,3.436,4.205,6.565,7.002,9.28c0.689,0.56,1.533,0.893,2.418,0.956c0.14,0.099,0.173,0.291,0.075,0.432
		c-0.021,0.029-0.046,0.055-0.075,0.075c-0.495,0.132-1.007,0.188-1.519,0.168c-2.981,0-4.752-0.871-7.227-4.387
		c-0.928-1.293-2.334-3.712-3.431-5.286c-0.534-0.824-1.505-1.255-2.475-1.098c-1.575,0-1.631,0-1.631,0.76v4.387
		c0,3.685,0,4.078,2.081,4.359h0.731c0.213,0.251,0.213,0.62,0,0.871c-1.575,0-2.812,0-4.162,0s-2.812,0-4.359,0
		c-0.213-0.251-0.213-0.62,0-0.871h0.872c2.024-0.226,2.081-0.675,2.081-4.359L279.126,295.426z M281.938,300.403
		c0,0.647,0,1.013,0,1.153s0.619,0.168,2.39,0.168c1.267,0.116,2.536-0.201,3.6-0.899c1.256-1.07,1.907-2.688,1.744-4.331
		c0.137-2.838-2.054-5.25-4.893-5.388c-0.244-0.012-0.488-0.006-0.731,0.017c-2.137,0-2.25,0-2.25,1.125L281.938,300.403z"/>
	<path class="blue" d="M310.172,307.939c0,3.685,0,4.19,2.081,4.359h1.125c0.213,0.251,0.213,0.62,0,0.871c-1.968,0-3.149,0-4.556,0
		c-1.406,0-2.615,0-4.836,0c-0.241-0.22-0.258-0.594-0.038-0.834c0.012-0.013,0.024-0.025,0.038-0.037h1.237
		c1.997-0.169,2.165-0.675,2.165-4.359v-15.578c0-1.098,0-1.125-1.041-1.125h-1.912c-1.49-0.161-2.993,0.144-4.302,0.871
		c-0.702,0.676-1.241,1.504-1.575,2.419c-0.319,0.171-0.716,0.059-0.9-0.253c0.565-1.7,1.007-3.439,1.322-5.203c0,0,0.562,0,0.675,0
		c0.197,1.125,1.35,1.098,2.812,1.098h14.06c1.884,0,2.194,0,2.812-0.984c0.2-0.115,0.446-0.115,0.646,0
		c-0.41,1.73-0.59,3.508-0.534,5.286c-0.251,0.243-0.649,0.243-0.9,0c-0.034-0.92-0.336-1.81-0.872-2.559
		c-1.232-0.69-2.643-0.995-4.049-0.872h-2.475c-1.041,0-1.013,0-1.013,1.182L310.172,307.939z"/>
	<path class="blue" d="M329.49,313.732c-1.899,0.052-3.78-0.395-5.455-1.293c-0.567-1.562-0.881-3.204-0.928-4.865
		c0.168-0.253,0.703-0.338,0.844,0c0.584,2.932,3.141,5.055,6.13,5.09c2.179,0.218,4.122-1.372,4.34-3.551
		c0.016-0.156,0.022-0.313,0.019-0.471c0.092-2.038-1.004-3.945-2.812-4.893l-3.318-2.137c-2.225-1.221-3.677-3.488-3.853-6.019
		c0-3.318,2.588-5.989,7.143-5.989c1.093,0.014,2.18,0.164,3.234,0.449c0.392,0.121,0.799,0.188,1.209,0.197
		c0.414,1.388,0.631,2.826,0.646,4.274c0,0.196-0.703,0.31-0.871,0c-0.332-2.343-2.391-4.048-4.753-3.937
		c-1.999-0.285-3.851,1.104-4.135,3.104c-0.036,0.257-0.046,0.518-0.026,0.776c0.225,1.837,1.339,3.446,2.98,4.303l2.812,1.743
		c2.565,1.27,4.235,3.834,4.358,6.693c-0.047,3.634-3.031,6.541-6.666,6.493c-0.253-0.003-0.506-0.021-0.758-0.054"/>
	<path class="blue" d="M363.404,292.361c0.016,0.744-0.576,1.361-1.32,1.377c-0.001,0-0.001,0-0.002,0c-0.618,0-0.814-0.393-0.983-1.04
		c-0.13-0.583-0.642-1.001-1.237-1.013c-0.879,0.059-1.697,0.463-2.277,1.125c-1.15,1.178-1.779,2.77-1.744,4.415
		c-0.029,0.517,0.047,1.033,0.225,1.519c0.75-0.749,1.754-1.19,2.812-1.237c1.548-0.124,2.904,1.03,3.027,2.578
		c0.007,0.078,0.01,0.155,0.01,0.233c0.005,1.554-1.25,2.816-2.803,2.822c-0.078,0-0.156-0.004-0.234-0.01
		c-1.521,0.006-2.896-0.904-3.486-2.306c-0.652,1.073-0.967,2.317-0.9,3.571c0.148,3.988,3.502,7.102,7.49,6.953
		c0.166-0.006,0.331-0.018,0.496-0.035c1.977,0.021,3.904-0.612,5.483-1.8c1.942-1.533,3.131-3.828,3.263-6.3
		c0.1-1.266-0.164-2.533-0.76-3.655c-0.225-0.281-0.9-0.506-2.307-0.506c-1.314-0.108-2.47,0.87-2.578,2.185
		c-0.006,0.068-0.009,0.137-0.008,0.205c-0.053,0.454,0.254,0.871,0.702,0.957c0.253,0,0.394,0,0.562-0.45
		c0.17-0.55,0.753-0.856,1.302-0.687c0.486,0.15,0.793,0.631,0.723,1.137c0,0.955-0.955,1.434-1.884,1.434
		c-1.351,0.031-2.472-1.038-2.503-2.389c0-0.038,0-0.076,0-0.113c-0.006-0.855,0.316-1.682,0.9-2.307
		c1.012-0.965,2.37-1.482,3.768-1.434h2.812c1.659,0,5.174,0,5.174-3.684c0.002-1.5-1.174-2.738-2.671-2.812
		c-0.368-0.002-0.674,0.28-0.703,0.646c0,0.169,0,0.31,0.365,0.506c0.401,0.254,0.662,0.68,0.703,1.153
		c0.05,0.759-0.526,1.415-1.286,1.464c-0.068,0.005-0.137,0.004-0.204-0.002c-0.947,0.002-1.716-0.766-1.718-1.713
		c0-0.029,0.001-0.058,0.002-0.086c-0.004-1.554,1.25-2.816,2.804-2.822c0.078,0,0.155,0.004,0.233,0.01
		c2.219,0.091,3.945,1.963,3.854,4.182c-0.004,0.115-0.014,0.23-0.029,0.346c0.05,1.282-0.477,2.52-1.434,3.375
		c-1.456,1.057-3.239,1.564-5.033,1.434c-0.395,0-0.479,0-0.338,0.59c0.587,1.283,0.912,2.669,0.956,4.078
		c-0.243,5.443-4.817,9.68-10.264,9.505c-4.63,0.528-8.81-2.797-9.339-7.426c-0.037-0.335-0.056-0.673-0.054-1.011
		c0.022-1.971,0.717-3.875,1.968-5.398c-0.71-2.555-0.179-5.293,1.435-7.396c1.034-1.309,2.581-2.107,4.247-2.193
		c1.771,0,2.812,1.041,2.812,2.166 M356.402,299.812c0.258,1.27,1.35,2.198,2.644,2.25c0.851,0.078,1.603-0.549,1.681-1.399
		c0.004-0.04,0.006-0.079,0.006-0.119c0.004-1.009-0.812-1.83-1.822-1.833c-0.049,0-0.098,0.002-0.146,0.006
		C357.861,298.744,357.008,299.141,356.402,299.812"/>
	<path class="blue" d="M395.828,313.732c-1.893,0.059-3.766-0.388-5.428-1.293c-0.565-1.563-0.888-3.204-0.956-4.865
		c0.196-0.253,0.703-0.338,0.844,0c0.548,2.925,3.044,5.083,6.018,5.202c2.179,0.218,4.122-1.372,4.34-3.551
		c0.016-0.156,0.021-0.313,0.019-0.471c0.078-2.035-1.015-3.935-2.812-4.893l-3.318-2.138c-2.192-1.24-3.61-3.504-3.769-6.018
		c0-3.318,2.588-5.99,7.115-5.99c1.102,0.015,2.197,0.166,3.262,0.451c0.392,0.121,0.799,0.188,1.209,0.196
		c0.402,1.39,0.611,2.827,0.619,4.274c-0.252,0.213-0.62,0.213-0.872,0c-0.317-2.338-2.368-4.046-4.725-3.938
		c-1.999-0.284-3.85,1.105-4.134,3.104c-0.037,0.258-0.047,0.519-0.027,0.777c0.188,1.805,1.235,3.406,2.812,4.303l2.812,1.744
		c2.556,1.264,4.225,3.815,4.358,6.664c0,3.824-2.812,6.439-7.452,6.439"/>
	<path class="blue" d="M411.856,292.558c2.716-2.022,6.037-3.062,9.421-2.952c2.079,0.026,4.147,0.311,6.158,0.844
		c0.325,0.062,0.659,0.062,0.984,0c0,0.814,0.196,3.008,0.478,5.146c-0.266,0.233-0.662,0.233-0.928,0
		c-0.642-3.343-3.803-5.587-7.171-5.09c-5.314,0-9.87,3.403-9.87,10.602c0,7.199,4.64,11.248,10.376,11.248
		c3.156,0.133,6.049-1.754,7.199-4.696c0.298-0.158,0.664-0.101,0.9,0.141c-0.232,1.688-0.797,3.312-1.659,4.781
		c-0.421,0.092-0.835,0.214-1.237,0.365c-1.829,0.522-3.723,0.788-5.625,0.787c-3.064,0.11-6.092-0.702-8.688-2.334
		c-3.176-2.145-5.041-5.758-4.949-9.589c-0.056-3.604,1.577-7.028,4.415-9.252"/>
	<path class="blue" d="M436.406,295.454c0-3.684,0-4.274-2.138-4.472h-0.872c-0.225-0.141-0.141-0.759,0-0.871c1.744,0,2.953,0,4.415,0
		c1.463,0,2.56,0,4.303,0c0.213,0.252,0.213,0.62,0,0.871h-0.872c-2.053,0.197-2.137,0.788-2.137,4.472v12.43
		c0,3.684,0,4.189,2.137,4.415h0.872c0.213,0.251,0.213,0.62,0,0.871c-1.743,0-2.812,0-4.303,0c-1.49,0-2.812,0-4.415,0
		c-0.213-0.251-0.213-0.62,0-0.871h0.872c2.053-0.226,2.138-0.731,2.138-4.415V295.454z"/>
	<path class="blue" d="M449.932,295.398c0-3.628,0-4.162-2.137-4.387h-0.562c-0.213-0.252-0.213-0.621,0-0.873c1.49,0,2.672,0,4.105,0h6.553
		c1.573,0.086,3.15,0.086,4.724,0c0.276,1.534,0.455,3.084,0.534,4.641c-0.242,0.209-0.601,0.209-0.844,0
		c-0.534-1.631-0.844-2.812-2.812-3.29c-1.113-0.202-2.245-0.278-3.375-0.226h-2.306c-1.068,0-1.068,0-1.068,1.406v6.975
		c0,0.984,0,0.984,1.152,0.984h2.025c0.999,0.041,1.999-0.034,2.98-0.226c0.422-0.141,0.646-0.337,0.815-1.209l0.281-1.435
		c0.197-0.225,0.787-0.225,0.928,0c0,0.844,0,2.193,0,3.516c0,1.321,0,2.587,0,3.346c0,0.254-0.73,0.254-0.928,0l-0.281-1.406
		c0-0.618-0.365-1.152-1.068-1.321c-0.928-0.168-1.871-0.225-2.812-0.169h-2.024c-1.04,0-1.153,0-1.153,0.928v4.922
		c0,1.855,0,3.037,0.676,3.628c0.675,0.59,1.152,0.815,4.218,0.815c1.572,0.252,3.182,0.127,4.696-0.366
		c1.086-0.907,1.935-2.065,2.475-3.374c0.311-0.168,0.699-0.056,0.871,0.253c-0.394,1.652-0.92,3.27-1.574,4.837
		c-3.149,0-6.243,0-9.336,0h-3.149c-1.491,0-2.812,0-4.753,0c-0.213-0.252-0.213-0.62,0-0.872h1.153
		c1.969-0.169,2.165-0.675,2.165-4.358L449.932,295.398z"/>
	<path class="blue" d="M490.791,307.236c0,1.069,0,5.203,0,6.131c0,0.196-0.281,0.365-0.675,0.365c-0.394-0.591-1.434-1.8-4.442-5.259l-8.1-9.224
		c-0.956-1.068-3.318-3.937-4.049-4.695l0,0c-0.154,0.748-0.211,1.514-0.169,2.277v7.593c-0.114,2.426,0.095,4.855,0.618,7.227
		c0.484,0.457,1.137,0.691,1.8,0.647h1.069c0.225,0.246,0.225,0.624,0,0.871c-1.575,0-2.812,0-4.078,0s-2.418,0-3.627,0
		c-0.226-0.247-0.226-0.625,0-0.871h0.956c0.787,0,1.35-0.31,1.519-0.675c0.415-2.376,0.565-4.79,0.449-7.199v-10.096
		c0.114-0.904-0.161-1.813-0.759-2.503c-0.619-0.496-1.374-0.79-2.165-0.844h-0.591c-0.197-0.225-0.197-0.73,0-0.871
		c1.462,0,3.29,0,3.937,0c0.534,0.031,1.069,0.031,1.604,0c1.726,2.752,3.723,5.323,5.961,7.677l3.375,3.796
		c2.418,2.812,4.134,4.641,5.624,6.327l0,0c0.104-0.491,0.104-0.998,0-1.49v-7.508c0.123-2.429-0.104-4.863-0.675-7.228
		c-0.226-0.309-0.787-0.506-2.165-0.703h-0.591c-0.253-0.225-0.226-0.759,0-0.871c1.603,0,2.812,0,4.105,0s2.418,0,3.6,0
		c0.239,0.241,0.239,0.631,0,0.871h-0.506c-1.098,0.197-1.8,0.479-1.94,0.731c-0.484,2.367-0.664,4.786-0.534,7.199L490.791,307.236
		z"/>
	<path class="blue" d="M501.618,292.558c2.718-2.018,6.037-3.058,9.42-2.952c2.089,0.027,4.167,0.312,6.187,0.844
		c0.325,0.064,0.659,0.064,0.984,0c0,0.814,0.197,3.008,0.479,5.146c-0.274,0.237-0.682,0.237-0.956,0
		c-0.615-3.348-3.778-5.602-7.143-5.09c-5.344,0-9.871,3.403-9.871,10.602c0,7.199,4.641,11.248,10.349,11.248
		c3.275,0.129,6.246-1.906,7.312-5.005c0.298-0.158,0.664-0.102,0.899,0.141c-0.245,1.684-0.808,3.306-1.658,4.78
		c-0.421,0.092-0.835,0.214-1.238,0.365c-1.828,0.523-3.722,0.788-5.624,0.787c-3.065,0.114-6.094-0.699-8.688-2.334
		c-3.176-2.145-5.041-5.758-4.949-9.589C497.187,297.992,498.842,294.703,501.618,292.558"/>
	<path class="blue" d="M526.139,295.398c0-3.628,0-4.162-2.108-4.387h-0.562c-0.225-0.141-0.141-0.76,0-0.873c1.519,0,2.812,0,4.134,0h6.552
		c1.564,0.086,3.132,0.086,4.696,0c0.288,1.533,0.477,3.084,0.562,4.641c-0.141,0.197-0.703,0.281-0.872,0
		c-0.506-1.631-0.843-2.812-2.643-3.29c-1.113-0.202-2.245-0.278-3.375-0.226h-2.53c-1.041,0-1.041,0-1.041,1.406v6.975
		c0,0.984,0,0.984,1.153,0.984h2.024c0.943,0.031,1.887-0.045,2.812-0.226c0.422-0.141,0.675-0.337,0.843-1.209l0.281-1.435
		c0.251-0.242,0.649-0.242,0.9,0c0,0.844,0,2.193,0,3.516c0,1.321,0,2.587,0,3.346c-0.256,0.229-0.644,0.229-0.9,0l-0.309-1.377
		c-0.05-0.629-0.489-1.158-1.097-1.322c-0.881-0.16-1.777-0.217-2.672-0.169h-2.024c-1.041,0-1.153,0-1.153,0.929v4.921
		c0,1.855,0,3.037,0.675,3.627c0.675,0.591,1.153,0.815,4.219,0.815c1.502,0.165,3.022-0.018,4.442-0.534
		c1.098-0.903,1.956-2.062,2.503-3.374c0.312-0.168,0.699-0.056,0.872,0.253c-0.394,1.652-0.92,3.27-1.575,4.837
		c-3.149,0-6.242,0-9.364,0h-3.121c-1.519,0-2.812,0-4.752,0c-0.213-0.252-0.213-0.62,0-0.872h1.152
		c1.997-0.169,2.165-0.675,2.165-4.358L526.139,295.398z"/>
	<path class="blue" d="M551.616,313.732c-1.9,0.057-3.782-0.39-5.455-1.293c-0.567-1.562-0.881-3.204-0.928-4.865
		c0.169-0.253,0.675-0.338,0.815,0c0.548,2.925,3.044,5.083,6.018,5.202c2.179,0.218,4.122-1.372,4.34-3.551
		c0.016-0.156,0.021-0.313,0.019-0.471c0.092-2.038-1.005-3.945-2.812-4.893l-3.318-2.138c-2.192-1.281-3.581-3.592-3.684-6.13
		c0-3.318,2.587-5.989,7.114-5.989c1.102,0.014,2.197,0.164,3.262,0.449c0.393,0.121,0.799,0.188,1.21,0.197
		c0.402,1.389,0.61,2.828,0.618,4.274c-0.252,0.212-0.62,0.212-0.872,0c-0.317-2.338-2.367-4.046-4.724-3.937
		c-1.999-0.285-3.851,1.104-4.135,3.104c-0.037,0.257-0.046,0.518-0.027,0.776c0.219,1.831,1.322,3.439,2.952,4.303l2.812,1.743
		c2.564,1.27,4.235,3.834,4.358,6.693c-0.047,3.634-3.031,6.541-6.665,6.493c-0.254-0.003-0.507-0.021-0.759-0.054"/>
</g>
</svg>
